<?xml version="1.0" encoding="UTF-8" standalone="no"?>
<!DOCTYPE svg PUBLIC "-//W3C//DTD SVG 1.1//EN" "http://www.w3.org/Graphics/SVG/1.1/DTD/svg11.dtd">
<svg width="100%" height="100%" viewBox="0 0 24 24" version="1.1" xmlns="http://www.w3.org/2000/svg" xmlns:xlink="http://www.w3.org/1999/xlink" xml:space="preserve" xmlns:serif="http://www.serif.com/" style="fill-rule:evenodd;clip-rule:evenodd;stroke-linejoin:round;stroke-miterlimit:2;">
    <g transform="matrix(1.2,0,0,1.2,-2.4,-2.4)">
        <path d="M12,2C6.514,2 2,6.514 2,12C2,17.486 6.514,22 12,22C17.486,22 22,17.486 22,12C22,6.514 17.486,2 12,2ZM12,20C7.611,20 4,16.389 4,12C4,7.611 7.611,4 12,4C16.389,4 20,7.611 20,12C20,16.389 16.389,20 12,20ZM16,11L13,11L13,8C13,7.451 12.549,7 12,7C11.451,7 11,7.451 11,8L11,11L8,11C7.451,11 7,11.451 7,12C7,12.549 7.451,13 8,13L11,13L11,16C11,16.549 11.451,17 12,17C12.549,17 13,16.549 13,16L13,13L16,13C16.549,13 17,12.549 17,12C17,11.451 16.549,11 16,11Z" style="fill:rgb(34,34,34);fill-rule:nonzero;"/>
    </g>
</svg>
