<?xml version="1.0" encoding="UTF-8" standalone="no"?>
<!DOCTYPE svg PUBLIC "-//W3C//DTD SVG 1.1//EN" "http://www.w3.org/Graphics/SVG/1.1/DTD/svg11.dtd">
<svg width="100%" height="100%" viewBox="0 0 24 24" version="1.1" xmlns="http://www.w3.org/2000/svg" xmlns:xlink="http://www.w3.org/1999/xlink" xml:space="preserve" xmlns:serif="http://www.serif.com/" style="fill-rule:evenodd;clip-rule:evenodd;stroke-linejoin:round;stroke-miterlimit:2;">
    <circle cx="12" cy="12" r="12" style="fill:rgb(159,207,159);"/>
    <path d="M12,0C18.623,0 24,5.377 24,12C24,18.623 18.623,24 12,24C5.377,24 0,18.623 0,12C0,5.377 5.377,0 12,0ZM12,1C18.071,1 23,5.929 23,12C23,18.071 18.071,23 12,23C5.929,23 1,18.071 1,12C1,5.929 5.929,1 12,1Z" style="fill:rgb(34,34,34);"/>
    <g transform="matrix(1.32218,0,0,1.23696,1.42256,2.10432)">
        <g id="exclamation-mark.svg">
            <g>
                <path d="M5.961,4.457C5.721,3.18 6.701,2 8,2C9.299,2 10.279,3.18 10.039,4.457L9.184,9.017C9.077,9.587 8.58,10 8,10C7.42,10 6.923,9.587 6.816,9.017L5.961,4.457ZM9.5,12.5C9.5,13.328 8.828,14 8,14C7.172,14 6.5,13.328 6.5,12.5C6.5,11.672 7.172,11 8,11C8.828,11 9.5,11.672 9.5,12.5Z" style="fill:rgb(34,34,34);fill-rule:nonzero;"/>
            </g>
        </g>
    </g>
</svg>
