<?xml version="1.0" encoding="UTF-8" standalone="no"?>
<!DOCTYPE svg PUBLIC "-//W3C//DTD SVG 1.1//EN" "http://www.w3.org/Graphics/SVG/1.1/DTD/svg11.dtd">
<svg width="100%" height="100%" viewBox="0 0 24 24" version="1.1" xmlns="http://www.w3.org/2000/svg" xmlns:xlink="http://www.w3.org/1999/xlink" xml:space="preserve" xmlns:serif="http://www.serif.com/" style="fill-rule:evenodd;clip-rule:evenodd;stroke-linejoin:round;stroke-miterlimit:2;">
    <g transform="matrix(1.34477,0,0,1.33333,-4.24009,-4)">
        <path d="M3,6C3,4.343 4.343,3 6,3L9,3C9.552,3 10,3.448 10,4C10,4.552 9.552,5 9,5L6,5C5.448,5 5,5.448 5,6L5,9C5,9.552 4.552,10 4,10C3.448,10 3,9.552 3,9L3,6ZM3,18C3,19.657 4.343,21 6,21L9,21C9.552,21 10,20.552 10,20C10,19.448 9.552,19 9,19L6,19C5.448,19 5,18.552 5,18L5,15C5,14.448 4.552,14 4,14C3.448,14 3,14.448 3,15L3,18ZM18,3C19.657,3 21,4.343 21,6L21,9C21,9.552 20.552,10 20,10C19.448,10 19,9.552 19,9L19,6C19,5.448 18.552,5 18,5L15,5C14.448,5 14,4.552 14,4C14,3.448 14.448,3 15,3L18,3ZM21,18C21,19.657 19.657,21 18,21L15,21C14.448,21 14,20.552 14,20C14,19.448 14.448,19 15,19L18,19C18.552,19 19,18.552 19,18L19,15C19,14.448 19.448,14 20,14C20.552,14 21,14.448 21,15L21,18ZM9,11C8.448,11 8,11.448 8,12C8,12.552 8.448,13 9,13L15,13C15.552,13 16,12.552 16,12C16,11.448 15.552,11 15,11L9,11Z" style="fill:rgb(33,37,41);fill-rule:nonzero;"/>
    </g>
</svg>
