<?xml version="1.0" encoding="UTF-8" standalone="no"?>
<!DOCTYPE svg PUBLIC "-//W3C//DTD SVG 1.1//EN" "http://www.w3.org/Graphics/SVG/1.1/DTD/svg11.dtd">
<svg width="100%" height="100%" viewBox="0 0 142 37" version="1.1" xmlns="http://www.w3.org/2000/svg" xmlns:xlink="http://www.w3.org/1999/xlink" xml:space="preserve" xmlns:serif="http://www.serif.com/" style="fill-rule:evenodd;clip-rule:evenodd;stroke-linejoin:round;stroke-miterlimit:2;">
    <g id="Artboard2" transform="matrix(0.626446,0,0,0.515151,-1.73076,-2.21095)">
        <rect x="2.763" y="4.292" width="225.223" height="71.371" style="fill:none;"/>
        <clipPath id="_clip1">
            <rect x="2.763" y="4.292" width="225.223" height="71.371"/>
        </clipPath>
        <g clip-path="url(#_clip1)">
            <g id="Artboard1" transform="matrix(2.09329,0,0,1.64311,9.54522,256.943)">
                <rect x="-20.537" y="-175.556" width="212.136" height="85.413" style="fill:none;"/>
                <g transform="matrix(1,0,0,1,-3.05033,-1.25169)">
                    <g transform="matrix(0.698246,0,0,1.08385,-29.5615,-178.409)">
                        <g transform="matrix(9.81008,0,0,9.81008,78.8701,57.54)">
                            <path d="M0.476,-0.536C0.473,-0.57 0.457,-0.596 0.43,-0.614C0.402,-0.633 0.368,-0.642 0.326,-0.642C0.296,-0.642 0.27,-0.638 0.249,-0.628C0.227,-0.619 0.21,-0.606 0.198,-0.59C0.186,-0.574 0.18,-0.555 0.18,-0.535C0.18,-0.517 0.184,-0.502 0.192,-0.49C0.201,-0.478 0.211,-0.467 0.225,-0.459C0.238,-0.45 0.252,-0.443 0.268,-0.438C0.283,-0.432 0.298,-0.428 0.312,-0.424L0.383,-0.406C0.406,-0.4 0.43,-0.392 0.455,-0.382C0.479,-0.373 0.502,-0.36 0.522,-0.344C0.543,-0.328 0.56,-0.309 0.573,-0.285C0.586,-0.262 0.592,-0.234 0.592,-0.201C0.592,-0.16 0.582,-0.123 0.561,-0.091C0.539,-0.059 0.509,-0.034 0.469,-0.016C0.429,0.003 0.38,0.012 0.323,0.012C0.269,0.012 0.222,0.003 0.182,-0.014C0.142,-0.031 0.111,-0.056 0.088,-0.087C0.066,-0.119 0.053,-0.157 0.051,-0.201L0.161,-0.201C0.163,-0.175 0.172,-0.153 0.187,-0.136C0.202,-0.118 0.221,-0.105 0.245,-0.097C0.268,-0.088 0.294,-0.084 0.322,-0.084C0.354,-0.084 0.381,-0.089 0.405,-0.099C0.43,-0.109 0.449,-0.122 0.463,-0.14C0.477,-0.158 0.484,-0.178 0.484,-0.202C0.484,-0.224 0.478,-0.241 0.465,-0.255C0.453,-0.269 0.437,-0.28 0.416,-0.289C0.395,-0.298 0.372,-0.306 0.346,-0.313L0.26,-0.336C0.202,-0.352 0.155,-0.376 0.122,-0.406C0.088,-0.437 0.071,-0.478 0.071,-0.528C0.071,-0.57 0.082,-0.607 0.105,-0.638C0.127,-0.669 0.158,-0.694 0.197,-0.711C0.236,-0.729 0.28,-0.737 0.328,-0.737C0.378,-0.737 0.421,-0.729 0.459,-0.711C0.497,-0.694 0.526,-0.67 0.548,-0.64C0.57,-0.61 0.581,-0.575 0.582,-0.536L0.476,-0.536Z" style="fill:rgb(33,37,41);fill-rule:nonzero;"/>
                        </g>
                        <g transform="matrix(9.81008,0,0,9.81008,85.5192,57.54)">
                            <path d="M0.307,0.011C0.253,0.011 0.207,-0 0.168,-0.024C0.129,-0.047 0.099,-0.079 0.078,-0.121C0.057,-0.163 0.047,-0.213 0.047,-0.269C0.047,-0.325 0.057,-0.374 0.078,-0.417C0.099,-0.46 0.129,-0.493 0.166,-0.517C0.204,-0.541 0.248,-0.553 0.299,-0.553C0.33,-0.553 0.36,-0.547 0.389,-0.537C0.417,-0.527 0.443,-0.511 0.466,-0.489C0.489,-0.468 0.507,-0.439 0.521,-0.405C0.534,-0.37 0.541,-0.328 0.541,-0.278L0.541,-0.241L0.107,-0.241L0.107,-0.32L0.436,-0.32C0.436,-0.348 0.431,-0.373 0.419,-0.395C0.408,-0.416 0.392,-0.433 0.372,-0.446C0.351,-0.459 0.327,-0.465 0.3,-0.465C0.27,-0.465 0.244,-0.458 0.222,-0.443C0.2,-0.428 0.183,-0.41 0.171,-0.386C0.159,-0.363 0.153,-0.337 0.153,-0.31L0.153,-0.248C0.153,-0.212 0.159,-0.181 0.172,-0.155C0.185,-0.13 0.203,-0.11 0.226,-0.097C0.249,-0.083 0.276,-0.077 0.307,-0.077C0.328,-0.077 0.346,-0.08 0.363,-0.085C0.379,-0.091 0.394,-0.1 0.406,-0.111C0.418,-0.123 0.427,-0.137 0.433,-0.155L0.534,-0.136C0.526,-0.107 0.511,-0.081 0.491,-0.059C0.47,-0.037 0.444,-0.02 0.413,-0.007C0.382,0.005 0.346,0.011 0.307,0.011Z" style="fill:rgb(33,37,41);fill-rule:nonzero;"/>
                        </g>
                        <g transform="matrix(9.81008,0,0,9.81008,91.6249,57.54)">
                            <rect x="0.071" y="-0.727" width="0.106" height="0.727" style="fill:rgb(33,37,41);fill-rule:nonzero;"/>
                        </g>
                        <g transform="matrix(9.81008,0,0,9.81008,94.3444,57.54)">
                            <path d="M0.331,-0.545L0.331,-0.46L0.023,-0.46L0.023,-0.545L0.331,-0.545ZM0.107,-0L0.107,-0.609C0.107,-0.643 0.115,-0.671 0.13,-0.694C0.145,-0.716 0.164,-0.733 0.189,-0.744C0.214,-0.756 0.24,-0.761 0.269,-0.761C0.29,-0.761 0.309,-0.76 0.324,-0.756C0.339,-0.753 0.35,-0.75 0.358,-0.747L0.333,-0.661C0.328,-0.662 0.321,-0.664 0.314,-0.666C0.306,-0.668 0.296,-0.669 0.285,-0.669C0.259,-0.669 0.241,-0.663 0.23,-0.65C0.219,-0.637 0.213,-0.619 0.213,-0.595L0.213,-0L0.107,-0Z" style="fill:rgb(33,37,41);fill-rule:nonzero;"/>
                        </g>
                        <g transform="matrix(9.81008,0,0,9.81008,97.9975,57.54)">
                            <rect x="0.07" y="-0.353" width="0.323" height="0.092" style="fill:rgb(33,37,41);fill-rule:nonzero;"/>
                        </g>
                        <g transform="matrix(9.81008,0,0,9.81008,102.905,57.54)">
                            <path d="M0.684,-0.491L0.573,-0.491C0.569,-0.514 0.561,-0.535 0.549,-0.553C0.538,-0.571 0.524,-0.587 0.507,-0.599C0.49,-0.612 0.471,-0.621 0.45,-0.627C0.43,-0.634 0.408,-0.637 0.385,-0.637C0.343,-0.637 0.305,-0.626 0.272,-0.605C0.239,-0.584 0.213,-0.554 0.194,-0.513C0.175,-0.472 0.165,-0.422 0.165,-0.364C0.165,-0.304 0.175,-0.254 0.194,-0.214C0.213,-0.173 0.239,-0.142 0.272,-0.122C0.305,-0.101 0.343,-0.09 0.384,-0.09C0.407,-0.09 0.429,-0.093 0.45,-0.1C0.471,-0.106 0.489,-0.115 0.506,-0.127C0.523,-0.14 0.537,-0.155 0.549,-0.173C0.56,-0.191 0.569,-0.211 0.573,-0.234L0.684,-0.234C0.678,-0.198 0.667,-0.165 0.65,-0.135C0.633,-0.106 0.611,-0.08 0.585,-0.058C0.558,-0.036 0.528,-0.02 0.494,-0.008C0.46,0.004 0.424,0.01 0.384,0.01C0.321,0.01 0.264,-0.005 0.215,-0.035C0.166,-0.065 0.127,-0.108 0.099,-0.164C0.071,-0.22 0.057,-0.286 0.057,-0.364C0.057,-0.441 0.071,-0.508 0.099,-0.564C0.128,-0.619 0.166,-0.662 0.216,-0.692C0.265,-0.722 0.321,-0.737 0.384,-0.737C0.422,-0.737 0.458,-0.732 0.492,-0.721C0.525,-0.71 0.555,-0.694 0.582,-0.672C0.609,-0.651 0.631,-0.625 0.648,-0.595C0.666,-0.565 0.678,-0.53 0.684,-0.491Z" style="fill:rgb(33,37,41);fill-rule:nonzero;"/>
                        </g>
                        <g transform="matrix(9.81008,0,0,9.81008,110.432,57.54)">
                            <path d="M0.178,-0.324L0.178,-0L0.071,-0L0.071,-0.727L0.176,-0.727L0.176,-0.457L0.183,-0.457C0.196,-0.486 0.215,-0.509 0.241,-0.527C0.268,-0.544 0.302,-0.553 0.344,-0.553C0.382,-0.553 0.415,-0.545 0.443,-0.53C0.471,-0.514 0.492,-0.491 0.508,-0.461C0.524,-0.43 0.531,-0.392 0.531,-0.347L0.531,-0L0.425,-0L0.425,-0.334C0.425,-0.374 0.415,-0.405 0.394,-0.427C0.374,-0.449 0.345,-0.461 0.308,-0.461C0.283,-0.461 0.261,-0.455 0.241,-0.444C0.221,-0.434 0.206,-0.418 0.194,-0.398C0.183,-0.378 0.178,-0.353 0.178,-0.324Z" style="fill:rgb(33,37,41);fill-rule:nonzero;"/>
                        </g>
                        <g transform="matrix(9.81008,0,0,9.81008,116.621,57.54)">
                            <path d="M0.307,0.011C0.253,0.011 0.207,-0 0.168,-0.024C0.129,-0.047 0.099,-0.079 0.078,-0.121C0.057,-0.163 0.047,-0.213 0.047,-0.269C0.047,-0.325 0.057,-0.374 0.078,-0.417C0.099,-0.46 0.129,-0.493 0.166,-0.517C0.204,-0.541 0.248,-0.553 0.299,-0.553C0.33,-0.553 0.36,-0.547 0.389,-0.537C0.417,-0.527 0.443,-0.511 0.466,-0.489C0.489,-0.468 0.507,-0.439 0.521,-0.405C0.534,-0.37 0.541,-0.328 0.541,-0.278L0.541,-0.241L0.107,-0.241L0.107,-0.32L0.436,-0.32C0.436,-0.348 0.431,-0.373 0.419,-0.395C0.408,-0.416 0.392,-0.433 0.372,-0.446C0.351,-0.459 0.327,-0.465 0.3,-0.465C0.27,-0.465 0.244,-0.458 0.222,-0.443C0.2,-0.428 0.183,-0.41 0.171,-0.386C0.159,-0.363 0.153,-0.337 0.153,-0.31L0.153,-0.248C0.153,-0.212 0.159,-0.181 0.172,-0.155C0.185,-0.13 0.203,-0.11 0.226,-0.097C0.249,-0.083 0.276,-0.077 0.307,-0.077C0.328,-0.077 0.346,-0.08 0.363,-0.085C0.379,-0.091 0.394,-0.1 0.406,-0.111C0.418,-0.123 0.427,-0.137 0.433,-0.155L0.534,-0.136C0.526,-0.107 0.511,-0.081 0.491,-0.059C0.47,-0.037 0.444,-0.02 0.413,-0.007C0.382,0.005 0.346,0.011 0.307,0.011Z" style="fill:rgb(33,37,41);fill-rule:nonzero;"/>
                        </g>
                        <g transform="matrix(9.81008,0,0,9.81008,122.727,57.54)">
                            <path d="M0.301,0.011C0.248,0.011 0.203,-0.001 0.165,-0.025C0.127,-0.049 0.098,-0.082 0.077,-0.125C0.057,-0.167 0.047,-0.215 0.047,-0.27C0.047,-0.326 0.057,-0.375 0.078,-0.417C0.099,-0.46 0.128,-0.493 0.166,-0.517C0.204,-0.541 0.249,-0.553 0.3,-0.553C0.341,-0.553 0.378,-0.545 0.411,-0.53C0.443,-0.515 0.469,-0.493 0.489,-0.466C0.51,-0.438 0.521,-0.406 0.525,-0.369L0.422,-0.369C0.416,-0.395 0.403,-0.417 0.383,-0.435C0.363,-0.454 0.336,-0.463 0.302,-0.463C0.272,-0.463 0.246,-0.455 0.224,-0.44C0.202,-0.424 0.185,-0.402 0.172,-0.374C0.16,-0.345 0.154,-0.312 0.154,-0.273C0.154,-0.233 0.16,-0.199 0.172,-0.17C0.184,-0.141 0.201,-0.118 0.224,-0.103C0.246,-0.087 0.272,-0.079 0.302,-0.079C0.322,-0.079 0.34,-0.083 0.357,-0.09C0.373,-0.098 0.387,-0.108 0.398,-0.122C0.41,-0.136 0.417,-0.153 0.422,-0.173L0.525,-0.173C0.521,-0.137 0.51,-0.106 0.491,-0.078C0.472,-0.05 0.446,-0.029 0.414,-0.013C0.382,0.003 0.344,0.011 0.301,0.011Z" style="fill:rgb(33,37,41);fill-rule:nonzero;"/>
                        </g>
                        <g transform="matrix(9.81008,0,0,9.81008,128.595,57.54)">
                            <path d="M0.169,-0.185L0.168,-0.314L0.187,-0.314L0.404,-0.545L0.531,-0.545L0.284,-0.283L0.267,-0.283L0.169,-0.185ZM0.071,-0L0.071,-0.727L0.178,-0.727L0.178,-0L0.071,-0ZM0.416,-0L0.22,-0.259L0.294,-0.334L0.546,-0L0.416,-0Z" style="fill:rgb(33,37,41);fill-rule:nonzero;"/>
                        </g>
                        <g transform="matrix(9.81008,0,0,9.81008,134.102,57.54)">
                            <path d="M0.301,0.011C0.25,0.011 0.205,-0.001 0.167,-0.024C0.129,-0.048 0.1,-0.08 0.078,-0.123C0.057,-0.165 0.047,-0.214 0.047,-0.27C0.047,-0.327 0.057,-0.376 0.078,-0.419C0.1,-0.461 0.129,-0.494 0.167,-0.517C0.205,-0.541 0.25,-0.553 0.301,-0.553C0.352,-0.553 0.397,-0.541 0.435,-0.517C0.473,-0.494 0.503,-0.461 0.524,-0.419C0.545,-0.376 0.555,-0.327 0.555,-0.27C0.555,-0.214 0.545,-0.165 0.524,-0.123C0.503,-0.08 0.473,-0.048 0.435,-0.024C0.397,-0.001 0.352,0.011 0.301,0.011ZM0.301,-0.078C0.335,-0.078 0.362,-0.087 0.384,-0.104C0.406,-0.122 0.422,-0.145 0.432,-0.175C0.443,-0.204 0.448,-0.236 0.448,-0.27C0.448,-0.305 0.443,-0.337 0.432,-0.367C0.422,-0.396 0.406,-0.42 0.384,-0.437C0.362,-0.455 0.335,-0.464 0.301,-0.464C0.268,-0.464 0.24,-0.455 0.219,-0.437C0.197,-0.42 0.18,-0.396 0.17,-0.367C0.159,-0.337 0.154,-0.305 0.154,-0.27C0.154,-0.236 0.159,-0.204 0.17,-0.175C0.18,-0.145 0.197,-0.122 0.219,-0.104C0.24,-0.087 0.268,-0.078 0.301,-0.078Z" style="fill:rgb(33,37,41);fill-rule:nonzero;"/>
                        </g>
                        <g transform="matrix(9.81008,0,0,9.81008,140.347,57.54)">
                            <path d="M0.417,-0.226L0.417,-0.545L0.523,-0.545L0.523,-0L0.419,-0L0.419,-0.095L0.413,-0.095C0.401,-0.065 0.381,-0.041 0.353,-0.022C0.326,-0.003 0.291,0.007 0.25,0.007C0.215,0.007 0.184,-0.001 0.158,-0.016C0.131,-0.032 0.11,-0.055 0.094,-0.085C0.079,-0.116 0.071,-0.154 0.071,-0.199L0.071,-0.545L0.178,-0.545L0.178,-0.211C0.178,-0.174 0.188,-0.145 0.209,-0.123C0.229,-0.1 0.256,-0.089 0.289,-0.089C0.309,-0.089 0.328,-0.094 0.348,-0.104C0.368,-0.114 0.384,-0.129 0.397,-0.15C0.411,-0.17 0.417,-0.195 0.417,-0.226Z" style="fill:rgb(33,37,41);fill-rule:nonzero;"/>
                        </g>
                        <g transform="matrix(9.81008,0,0,9.81008,146.439,57.54)">
                            <path d="M0.326,-0.545L0.326,-0.46L0.028,-0.46L0.028,-0.545L0.326,-0.545ZM0.108,-0.676L0.214,-0.676L0.214,-0.16C0.214,-0.14 0.217,-0.124 0.223,-0.114C0.229,-0.103 0.237,-0.096 0.247,-0.093C0.257,-0.089 0.268,-0.087 0.28,-0.087C0.288,-0.087 0.296,-0.088 0.302,-0.089C0.308,-0.09 0.313,-0.091 0.317,-0.092L0.336,-0.004C0.33,-0.002 0.321,0 0.31,0.003C0.298,0.006 0.284,0.007 0.267,0.007C0.239,0.008 0.213,0.003 0.189,-0.008C0.165,-0.018 0.145,-0.034 0.13,-0.056C0.115,-0.078 0.108,-0.105 0.108,-0.138L0.108,-0.676Z" style="fill:rgb(33,37,41);fill-rule:nonzero;"/>
                        </g>
                        <g transform="matrix(9.81008,0,0,9.81008,153.55,57.54)">
                            <path d="M0.476,-0.536C0.473,-0.57 0.457,-0.596 0.43,-0.614C0.402,-0.633 0.368,-0.642 0.326,-0.642C0.296,-0.642 0.27,-0.638 0.249,-0.628C0.227,-0.619 0.21,-0.606 0.198,-0.59C0.186,-0.574 0.18,-0.555 0.18,-0.535C0.18,-0.517 0.184,-0.502 0.192,-0.49C0.201,-0.478 0.211,-0.467 0.225,-0.459C0.238,-0.45 0.252,-0.443 0.268,-0.438C0.283,-0.432 0.298,-0.428 0.312,-0.424L0.383,-0.406C0.406,-0.4 0.43,-0.392 0.455,-0.382C0.479,-0.373 0.502,-0.36 0.522,-0.344C0.543,-0.328 0.56,-0.309 0.573,-0.285C0.586,-0.262 0.592,-0.234 0.592,-0.201C0.592,-0.16 0.582,-0.123 0.561,-0.091C0.539,-0.059 0.509,-0.034 0.469,-0.016C0.429,0.003 0.38,0.012 0.323,0.012C0.269,0.012 0.222,0.003 0.182,-0.014C0.142,-0.031 0.111,-0.056 0.088,-0.087C0.066,-0.119 0.053,-0.157 0.051,-0.201L0.161,-0.201C0.163,-0.175 0.172,-0.153 0.187,-0.136C0.202,-0.118 0.221,-0.105 0.245,-0.097C0.268,-0.088 0.294,-0.084 0.322,-0.084C0.354,-0.084 0.381,-0.089 0.405,-0.099C0.43,-0.109 0.449,-0.122 0.463,-0.14C0.477,-0.158 0.484,-0.178 0.484,-0.202C0.484,-0.224 0.478,-0.241 0.465,-0.255C0.453,-0.269 0.437,-0.28 0.416,-0.289C0.395,-0.298 0.372,-0.306 0.346,-0.313L0.26,-0.336C0.202,-0.352 0.155,-0.376 0.122,-0.406C0.088,-0.437 0.071,-0.478 0.071,-0.528C0.071,-0.57 0.082,-0.607 0.105,-0.638C0.127,-0.669 0.158,-0.694 0.197,-0.711C0.236,-0.729 0.28,-0.737 0.328,-0.737C0.378,-0.737 0.421,-0.729 0.459,-0.711C0.497,-0.694 0.526,-0.67 0.548,-0.64C0.57,-0.61 0.581,-0.575 0.582,-0.536L0.476,-0.536Z" style="fill:rgb(33,37,41);fill-rule:nonzero;"/>
                        </g>
                        <g transform="matrix(9.81008,0,0,9.81008,160.199,57.54)">
                            <path d="M0.138,0.205C0.122,0.205 0.108,0.203 0.095,0.201C0.082,0.198 0.072,0.196 0.066,0.193L0.091,0.106C0.111,0.111 0.128,0.113 0.144,0.113C0.159,0.112 0.172,0.106 0.184,0.095C0.195,0.085 0.206,0.067 0.215,0.043L0.228,0.007L0.028,-0.545L0.142,-0.545L0.28,-0.122L0.286,-0.122L0.424,-0.545L0.538,-0.545L0.313,0.073C0.303,0.101 0.29,0.125 0.273,0.145C0.257,0.165 0.238,0.18 0.216,0.19C0.194,0.2 0.168,0.205 0.138,0.205Z" style="fill:rgb(33,37,41);fill-rule:nonzero;"/>
                        </g>
                        <g transform="matrix(9.81008,0,0,9.81008,166.054,57.54)">
                            <path d="M0.48,-0.412L0.384,-0.395C0.38,-0.407 0.374,-0.419 0.365,-0.43C0.356,-0.442 0.345,-0.451 0.33,-0.458C0.315,-0.465 0.297,-0.468 0.275,-0.468C0.245,-0.468 0.22,-0.462 0.199,-0.448C0.179,-0.435 0.169,-0.418 0.169,-0.397C0.169,-0.378 0.176,-0.364 0.19,-0.353C0.203,-0.342 0.225,-0.332 0.255,-0.325L0.342,-0.305C0.392,-0.294 0.429,-0.276 0.454,-0.252C0.479,-0.228 0.491,-0.196 0.491,-0.158C0.491,-0.125 0.481,-0.096 0.463,-0.07C0.444,-0.045 0.418,-0.025 0.384,-0.011C0.351,0.004 0.312,0.011 0.268,0.011C0.207,0.011 0.157,-0.002 0.118,-0.028C0.08,-0.054 0.056,-0.091 0.047,-0.14L0.15,-0.156C0.156,-0.129 0.17,-0.108 0.189,-0.095C0.209,-0.081 0.235,-0.074 0.267,-0.074C0.302,-0.074 0.33,-0.082 0.351,-0.096C0.371,-0.111 0.382,-0.129 0.382,-0.15C0.382,-0.167 0.375,-0.181 0.363,-0.193C0.35,-0.204 0.331,-0.213 0.305,-0.219L0.213,-0.239C0.161,-0.251 0.124,-0.269 0.1,-0.295C0.075,-0.32 0.063,-0.352 0.063,-0.391C0.063,-0.423 0.072,-0.451 0.09,-0.476C0.108,-0.5 0.133,-0.519 0.165,-0.532C0.196,-0.546 0.233,-0.553 0.274,-0.553C0.333,-0.553 0.379,-0.54 0.413,-0.514C0.447,-0.489 0.469,-0.455 0.48,-0.412Z" style="fill:rgb(33,37,41);fill-rule:nonzero;"/>
                        </g>
                        <g transform="matrix(9.81008,0,0,9.81008,171.574,57.54)">
                            <path d="M0.326,-0.545L0.326,-0.46L0.028,-0.46L0.028,-0.545L0.326,-0.545ZM0.108,-0.676L0.214,-0.676L0.214,-0.16C0.214,-0.14 0.217,-0.124 0.223,-0.114C0.229,-0.103 0.237,-0.096 0.247,-0.093C0.257,-0.089 0.268,-0.087 0.28,-0.087C0.288,-0.087 0.296,-0.088 0.302,-0.089C0.308,-0.09 0.313,-0.091 0.317,-0.092L0.336,-0.004C0.33,-0.002 0.321,0 0.31,0.003C0.298,0.006 0.284,0.007 0.267,0.007C0.239,0.008 0.213,0.003 0.189,-0.008C0.165,-0.018 0.145,-0.034 0.13,-0.056C0.115,-0.078 0.108,-0.105 0.108,-0.138L0.108,-0.676Z" style="fill:rgb(33,37,41);fill-rule:nonzero;"/>
                        </g>
                        <g transform="matrix(9.81008,0,0,9.81008,175.478,57.54)">
                            <path d="M0.307,0.011C0.253,0.011 0.207,-0 0.168,-0.024C0.129,-0.047 0.099,-0.079 0.078,-0.121C0.057,-0.163 0.047,-0.213 0.047,-0.269C0.047,-0.325 0.057,-0.374 0.078,-0.417C0.099,-0.46 0.129,-0.493 0.166,-0.517C0.204,-0.541 0.248,-0.553 0.299,-0.553C0.33,-0.553 0.36,-0.547 0.389,-0.537C0.417,-0.527 0.443,-0.511 0.466,-0.489C0.489,-0.468 0.507,-0.439 0.521,-0.405C0.534,-0.37 0.541,-0.328 0.541,-0.278L0.541,-0.241L0.107,-0.241L0.107,-0.32L0.436,-0.32C0.436,-0.348 0.431,-0.373 0.419,-0.395C0.408,-0.416 0.392,-0.433 0.372,-0.446C0.351,-0.459 0.327,-0.465 0.3,-0.465C0.27,-0.465 0.244,-0.458 0.222,-0.443C0.2,-0.428 0.183,-0.41 0.171,-0.386C0.159,-0.363 0.153,-0.337 0.153,-0.31L0.153,-0.248C0.153,-0.212 0.159,-0.181 0.172,-0.155C0.185,-0.13 0.203,-0.11 0.226,-0.097C0.249,-0.083 0.276,-0.077 0.307,-0.077C0.328,-0.077 0.346,-0.08 0.363,-0.085C0.379,-0.091 0.394,-0.1 0.406,-0.111C0.418,-0.123 0.427,-0.137 0.433,-0.155L0.534,-0.136C0.526,-0.107 0.511,-0.081 0.491,-0.059C0.47,-0.037 0.444,-0.02 0.413,-0.007C0.382,0.005 0.346,0.011 0.307,0.011Z" style="fill:rgb(33,37,41);fill-rule:nonzero;"/>
                        </g>
                        <g transform="matrix(9.81008,0,0,9.81008,181.584,57.54)">
                            <path d="M0.071,-0L0.071,-0.545L0.173,-0.545L0.173,-0.457L0.18,-0.457C0.191,-0.487 0.21,-0.51 0.236,-0.527C0.262,-0.544 0.292,-0.553 0.328,-0.553C0.365,-0.553 0.395,-0.544 0.42,-0.527C0.445,-0.51 0.463,-0.487 0.475,-0.457L0.481,-0.457C0.494,-0.486 0.515,-0.509 0.543,-0.526C0.571,-0.544 0.605,-0.553 0.645,-0.553C0.694,-0.553 0.734,-0.537 0.766,-0.506C0.797,-0.475 0.813,-0.428 0.813,-0.366L0.813,-0L0.707,-0L0.707,-0.356C0.707,-0.393 0.697,-0.419 0.676,-0.436C0.656,-0.453 0.632,-0.461 0.605,-0.461C0.57,-0.461 0.543,-0.45 0.524,-0.429C0.504,-0.408 0.495,-0.381 0.495,-0.348L0.495,-0L0.389,-0L0.389,-0.362C0.389,-0.392 0.38,-0.416 0.361,-0.434C0.343,-0.452 0.319,-0.461 0.289,-0.461C0.269,-0.461 0.251,-0.456 0.234,-0.445C0.217,-0.435 0.203,-0.42 0.193,-0.401C0.183,-0.383 0.178,-0.361 0.178,-0.336L0.178,-0L0.071,-0Z" style="fill:rgb(33,37,41);fill-rule:nonzero;"/>
                        </g>
                    </g>
                    <g transform="matrix(0.698246,0,0,1.08385,-30.1756,-191.918)">
                        <g transform="matrix(21.8002,0,0,21.8002,78.8701,57.54)">
                            <path d="M0.063,-0L0.063,-0.727L0.35,-0.727C0.405,-0.727 0.452,-0.717 0.491,-0.696C0.53,-0.675 0.56,-0.646 0.58,-0.609C0.601,-0.572 0.611,-0.529 0.611,-0.481C0.611,-0.433 0.6,-0.39 0.58,-0.353C0.559,-0.316 0.529,-0.287 0.489,-0.267C0.45,-0.246 0.402,-0.236 0.346,-0.236L0.163,-0.236L0.163,-0.359L0.321,-0.359C0.351,-0.359 0.375,-0.364 0.395,-0.375C0.414,-0.385 0.428,-0.399 0.438,-0.417C0.448,-0.436 0.453,-0.457 0.453,-0.481C0.453,-0.505 0.448,-0.526 0.438,-0.544C0.428,-0.562 0.414,-0.576 0.394,-0.586C0.375,-0.596 0.35,-0.601 0.321,-0.601L0.217,-0.601L0.217,-0L0.063,-0Z" style="fill:rgb(33,37,41);fill-rule:nonzero;"/>
                        </g>
                        <g transform="matrix(21.8002,0,0,21.8002,94.238,57.54)">
                            <rect x="0.061" y="-0.727" width="0.151" height="0.727" style="fill:rgb(33,37,41);fill-rule:nonzero;"/>
                        </g>
                        <g transform="matrix(21.8002,0,0,21.8002,100.935,57.54)">
                            <path d="M0.216,0.01C0.181,0.01 0.15,0.004 0.123,-0.008C0.096,-0.02 0.074,-0.038 0.059,-0.062C0.043,-0.086 0.035,-0.116 0.035,-0.152C0.035,-0.183 0.04,-0.208 0.051,-0.229C0.063,-0.249 0.078,-0.266 0.097,-0.278C0.116,-0.291 0.138,-0.3 0.162,-0.307C0.187,-0.313 0.213,-0.318 0.24,-0.32C0.271,-0.324 0.297,-0.327 0.316,-0.33C0.336,-0.333 0.35,-0.337 0.359,-0.343C0.367,-0.349 0.372,-0.358 0.372,-0.369L0.372,-0.371C0.372,-0.394 0.365,-0.411 0.351,-0.424C0.336,-0.436 0.317,-0.442 0.291,-0.442C0.264,-0.442 0.242,-0.436 0.226,-0.424C0.21,-0.412 0.199,-0.397 0.194,-0.379L0.054,-0.391C0.061,-0.424 0.075,-0.452 0.096,-0.477C0.117,-0.501 0.144,-0.52 0.177,-0.533C0.21,-0.546 0.248,-0.553 0.291,-0.553C0.322,-0.553 0.351,-0.549 0.379,-0.542C0.407,-0.535 0.431,-0.524 0.453,-0.509C0.474,-0.494 0.492,-0.475 0.504,-0.452C0.517,-0.428 0.523,-0.4 0.523,-0.368L0.523,-0L0.38,-0L0.38,-0.076L0.375,-0.076C0.366,-0.059 0.355,-0.044 0.34,-0.031C0.326,-0.018 0.308,-0.008 0.287,-0.001C0.267,0.007 0.243,0.01 0.216,0.01ZM0.259,-0.094C0.282,-0.094 0.301,-0.098 0.318,-0.107C0.335,-0.116 0.349,-0.128 0.358,-0.144C0.368,-0.159 0.373,-0.176 0.373,-0.195L0.373,-0.253C0.368,-0.25 0.362,-0.247 0.354,-0.245C0.345,-0.242 0.336,-0.24 0.326,-0.238C0.316,-0.236 0.306,-0.234 0.296,-0.233C0.285,-0.231 0.276,-0.23 0.268,-0.228C0.25,-0.226 0.235,-0.222 0.221,-0.216C0.208,-0.21 0.198,-0.203 0.19,-0.193C0.183,-0.183 0.179,-0.172 0.179,-0.157C0.179,-0.137 0.187,-0.121 0.202,-0.11C0.217,-0.099 0.236,-0.094 0.259,-0.094Z" style="fill:rgb(33,37,41);fill-rule:nonzero;"/>
                        </g>
                        <g transform="matrix(21.8002,0,0,21.8002,114.755,57.54)">
                            <path d="M0.212,-0.315L0.212,-0L0.061,-0L0.061,-0.545L0.205,-0.545L0.205,-0.449L0.211,-0.449C0.223,-0.481 0.243,-0.506 0.272,-0.525C0.3,-0.543 0.335,-0.553 0.375,-0.553C0.413,-0.553 0.446,-0.544 0.474,-0.528C0.502,-0.511 0.524,-0.487 0.54,-0.457C0.555,-0.426 0.563,-0.39 0.563,-0.347L0.563,-0L0.412,-0L0.412,-0.32C0.412,-0.354 0.404,-0.38 0.386,-0.399C0.369,-0.418 0.345,-0.427 0.315,-0.427C0.295,-0.427 0.277,-0.423 0.261,-0.414C0.246,-0.405 0.234,-0.392 0.225,-0.376C0.216,-0.359 0.212,-0.339 0.212,-0.315Z" style="fill:rgb(33,37,41);fill-rule:nonzero;"/>
                        </g>
                        <g transform="matrix(21.8002,0,0,21.8002,129.039,57.54)">
                            <path d="M0.351,-0.545L0.351,-0.432L0.022,-0.432L0.022,-0.545L0.351,-0.545ZM0.097,-0.676L0.248,-0.676L0.248,-0.168C0.248,-0.154 0.25,-0.143 0.254,-0.135C0.259,-0.127 0.265,-0.122 0.272,-0.119C0.28,-0.116 0.289,-0.114 0.299,-0.114C0.306,-0.114 0.313,-0.115 0.32,-0.116C0.328,-0.118 0.333,-0.119 0.337,-0.119L0.361,-0.007C0.353,-0.004 0.342,-0.001 0.329,0.002C0.315,0.005 0.298,0.007 0.278,0.008C0.242,0.009 0.21,0.004 0.183,-0.007C0.155,-0.018 0.134,-0.035 0.119,-0.059C0.104,-0.082 0.096,-0.112 0.097,-0.148L0.097,-0.676Z" style="fill:rgb(33,37,41);fill-rule:nonzero;"/>
                        </g>
                        <g transform="matrix(21.8002,0,0,21.8002,138.492,57.54)">
                            <path d="M0.216,0.01C0.181,0.01 0.15,0.004 0.123,-0.008C0.096,-0.02 0.074,-0.038 0.059,-0.062C0.043,-0.086 0.035,-0.116 0.035,-0.152C0.035,-0.183 0.04,-0.208 0.051,-0.229C0.063,-0.249 0.078,-0.266 0.097,-0.278C0.116,-0.291 0.138,-0.3 0.162,-0.307C0.187,-0.313 0.213,-0.318 0.24,-0.32C0.271,-0.324 0.297,-0.327 0.316,-0.33C0.336,-0.333 0.35,-0.337 0.359,-0.343C0.367,-0.349 0.372,-0.358 0.372,-0.369L0.372,-0.371C0.372,-0.394 0.365,-0.411 0.351,-0.424C0.336,-0.436 0.317,-0.442 0.291,-0.442C0.264,-0.442 0.242,-0.436 0.226,-0.424C0.21,-0.412 0.199,-0.397 0.194,-0.379L0.054,-0.391C0.061,-0.424 0.075,-0.452 0.096,-0.477C0.117,-0.501 0.144,-0.52 0.177,-0.533C0.21,-0.546 0.248,-0.553 0.291,-0.553C0.322,-0.553 0.351,-0.549 0.379,-0.542C0.407,-0.535 0.431,-0.524 0.453,-0.509C0.474,-0.494 0.492,-0.475 0.504,-0.452C0.517,-0.428 0.523,-0.4 0.523,-0.368L0.523,-0L0.38,-0L0.38,-0.076L0.375,-0.076C0.366,-0.059 0.355,-0.044 0.34,-0.031C0.326,-0.018 0.308,-0.008 0.287,-0.001C0.267,0.007 0.243,0.01 0.216,0.01ZM0.259,-0.094C0.282,-0.094 0.301,-0.098 0.318,-0.107C0.335,-0.116 0.349,-0.128 0.358,-0.144C0.368,-0.159 0.373,-0.176 0.373,-0.195L0.373,-0.253C0.368,-0.25 0.362,-0.247 0.354,-0.245C0.345,-0.242 0.336,-0.24 0.326,-0.238C0.316,-0.236 0.306,-0.234 0.296,-0.233C0.285,-0.231 0.276,-0.23 0.268,-0.228C0.25,-0.226 0.235,-0.222 0.221,-0.216C0.208,-0.21 0.198,-0.203 0.19,-0.193C0.183,-0.183 0.179,-0.172 0.179,-0.157C0.179,-0.137 0.187,-0.121 0.202,-0.11C0.217,-0.099 0.236,-0.094 0.259,-0.094Z" style="fill:rgb(33,37,41);fill-rule:nonzero;"/>
                        </g>
                        <g transform="matrix(21.8002,0,0,21.8002,152.312,57.54)">
                            <path d="M0.514,-0.39L0.376,-0.382C0.373,-0.393 0.368,-0.404 0.361,-0.413C0.353,-0.423 0.343,-0.431 0.33,-0.437C0.317,-0.442 0.302,-0.445 0.284,-0.445C0.261,-0.445 0.241,-0.44 0.225,-0.43C0.209,-0.421 0.201,-0.408 0.201,-0.391C0.201,-0.378 0.206,-0.367 0.217,-0.358C0.227,-0.349 0.245,-0.342 0.27,-0.337L0.369,-0.317C0.422,-0.306 0.462,-0.288 0.488,-0.264C0.514,-0.24 0.527,-0.208 0.527,-0.169C0.527,-0.133 0.516,-0.102 0.495,-0.075C0.474,-0.048 0.446,-0.027 0.409,-0.012C0.373,0.003 0.331,0.011 0.284,0.011C0.212,0.011 0.154,-0.005 0.111,-0.035C0.068,-0.065 0.044,-0.106 0.036,-0.158L0.185,-0.166C0.19,-0.144 0.2,-0.127 0.218,-0.116C0.235,-0.104 0.257,-0.098 0.284,-0.098C0.311,-0.098 0.332,-0.103 0.348,-0.114C0.364,-0.124 0.373,-0.137 0.373,-0.154C0.373,-0.168 0.367,-0.179 0.356,-0.188C0.344,-0.197 0.327,-0.203 0.303,-0.208L0.209,-0.227C0.155,-0.238 0.116,-0.256 0.09,-0.282C0.064,-0.309 0.051,-0.342 0.051,-0.383C0.051,-0.418 0.06,-0.448 0.079,-0.473C0.098,-0.499 0.125,-0.518 0.16,-0.532C0.195,-0.546 0.235,-0.553 0.282,-0.553C0.351,-0.553 0.405,-0.538 0.445,-0.509C0.484,-0.48 0.508,-0.44 0.514,-0.39Z" style="fill:rgb(33,37,41);fill-rule:nonzero;"/>
                        </g>
                        <g transform="matrix(21.8002,0,0,21.8002,165.233,57.54)">
                            <path d="M0.351,-0.545L0.351,-0.432L0.022,-0.432L0.022,-0.545L0.351,-0.545ZM0.097,-0.676L0.248,-0.676L0.248,-0.168C0.248,-0.154 0.25,-0.143 0.254,-0.135C0.259,-0.127 0.265,-0.122 0.272,-0.119C0.28,-0.116 0.289,-0.114 0.299,-0.114C0.306,-0.114 0.313,-0.115 0.32,-0.116C0.328,-0.118 0.333,-0.119 0.337,-0.119L0.361,-0.007C0.353,-0.004 0.342,-0.001 0.329,0.002C0.315,0.005 0.298,0.007 0.278,0.008C0.242,0.009 0.21,0.004 0.183,-0.007C0.155,-0.018 0.134,-0.035 0.119,-0.059C0.104,-0.082 0.096,-0.112 0.097,-0.148L0.097,-0.676Z" style="fill:rgb(33,37,41);fill-rule:nonzero;"/>
                        </g>
                        <g transform="matrix(21.8002,0,0,21.8002,174.687,57.54)">
                            <path d="M0.061,-0L0.061,-0.545L0.212,-0.545L0.212,-0L0.061,-0ZM0.136,-0.616C0.114,-0.616 0.095,-0.623 0.079,-0.638C0.063,-0.653 0.055,-0.671 0.055,-0.692C0.055,-0.713 0.063,-0.731 0.079,-0.746C0.095,-0.761 0.114,-0.769 0.136,-0.769C0.159,-0.769 0.178,-0.761 0.194,-0.746C0.21,-0.731 0.218,-0.713 0.218,-0.692C0.218,-0.671 0.21,-0.653 0.194,-0.638C0.178,-0.623 0.159,-0.616 0.136,-0.616Z" style="fill:rgb(33,37,41);fill-rule:nonzero;"/>
                        </g>
                        <g transform="matrix(21.8002,0,0,21.8002,181.384,57.54)">
                            <path d="M0.307,0.011C0.251,0.011 0.203,-0.001 0.163,-0.025C0.123,-0.049 0.092,-0.082 0.071,-0.124C0.049,-0.167 0.038,-0.215 0.038,-0.271C0.038,-0.326 0.049,-0.375 0.071,-0.418C0.093,-0.46 0.123,-0.493 0.163,-0.517C0.203,-0.541 0.251,-0.553 0.306,-0.553C0.354,-0.553 0.395,-0.544 0.431,-0.527C0.467,-0.509 0.495,-0.485 0.516,-0.454C0.537,-0.422 0.548,-0.386 0.55,-0.344L0.408,-0.344C0.404,-0.371 0.393,-0.393 0.376,-0.41C0.359,-0.426 0.336,-0.435 0.309,-0.435C0.285,-0.435 0.265,-0.428 0.247,-0.416C0.23,-0.403 0.216,-0.385 0.207,-0.36C0.197,-0.336 0.192,-0.307 0.192,-0.273C0.192,-0.238 0.197,-0.208 0.206,-0.184C0.216,-0.16 0.23,-0.141 0.247,-0.128C0.265,-0.115 0.285,-0.109 0.309,-0.109C0.326,-0.109 0.341,-0.113 0.355,-0.12C0.369,-0.127 0.38,-0.137 0.39,-0.151C0.399,-0.164 0.405,-0.181 0.408,-0.2L0.55,-0.2C0.548,-0.158 0.537,-0.122 0.516,-0.09C0.496,-0.058 0.468,-0.034 0.433,-0.016C0.397,0.002 0.355,0.011 0.307,0.011Z" style="fill:rgb(33,37,41);fill-rule:nonzero;"/>
                        </g>
                    </g>
                </g>
                <g id="plant-3-.svg" serif:id="plant(3).svg" transform="matrix(0.345141,0,0,0.534698,8.49472,-132.045)">
                    <g transform="matrix(1,0,0,1,-34,-34)">
                        <path d="M51.411,22.289C49.405,28.461 44.652,33.739 37.628,36.659L37.615,36.664C33.651,30.172 32.901,23.104 34.908,16.933C36.732,11.321 40.838,6.443 46.849,3.409C47.892,2.882 49.178,3.312 49.712,4.351C52.79,10.336 53.234,16.681 51.411,22.289Z" style="fill:rgb(159,207,159);fill-rule:nonzero;"/>
                        <path d="M41.032,16.93C39.282,22.3 39.622,28.35 42.362,34.11C40.932,35.09 39.352,35.95 37.632,36.66L37.612,36.66C33.652,30.17 32.902,23.1 34.912,16.93C36.731,11.317 40.843,6.441 46.855,3.408C47.911,2.875 49.193,3.329 49.729,4.383C49.851,4.625 49.969,4.867 50.082,5.11C45.632,8.12 42.552,12.27 41.032,16.93Z" style="fill:rgb(159,207,159);fill-rule:nonzero;"/>
                        <path d="M54.53,27.278C51.301,32.236 45.866,35.756 38.991,36.662L38.978,36.664C37.027,30.01 38.041,23.61 41.27,18.652C44.173,14.194 48.87,10.896 54.786,9.618C55.935,9.37 57.085,10.118 57.324,11.269C58.552,17.199 57.433,22.819 54.53,27.278Z" style="fill:rgb(159,207,159);fill-rule:nonzero;"/>
                        <path d="M57.612,13.01C52.522,14.52 48.462,17.58 45.852,21.59C43.242,25.61 42.072,30.58 42.772,35.86C41.572,36.22 40.312,36.49 38.992,36.66L38.982,36.66C37.022,30.01 38.042,23.61 41.272,18.65C44.176,14.19 48.867,10.895 54.785,9.621C55.936,9.373 57.086,10.125 57.322,11.278C57.441,11.859 57.538,12.437 57.612,13.01Z" style="fill:rgb(159,207,159);fill-rule:nonzero;"/>
                        <path d="M16.588,22.289C18.595,28.461 23.348,33.739 30.372,36.659L30.384,36.664C34.348,30.172 35.099,23.104 33.092,16.933C31.268,11.321 27.161,6.443 21.151,3.409C20.108,2.882 18.822,3.312 18.287,4.351C15.21,10.336 14.765,16.681 16.588,22.289Z" style="fill:rgb(159,207,159);fill-rule:nonzero;"/>
                        <path d="M31.532,34.58C31.192,35.28 30.802,35.97 30.382,36.66L30.372,36.66C23.352,33.74 18.592,28.46 16.592,22.29C14.766,16.683 15.21,10.333 18.285,4.351C18.817,3.316 20.096,2.881 21.136,3.404C21.897,3.787 22.627,4.201 23.322,4.65C20.362,10.54 19.962,16.78 21.762,22.29C23.362,27.2 26.692,31.55 31.532,34.58Z" style="fill:rgb(159,207,159);fill-rule:nonzero;"/>
                        <path d="M13.47,27.278C21.448,39.528 17.385,35.131 29.009,36.662L29.021,36.664C30.973,30.01 29.959,23.61 26.73,18.652C23.827,14.194 19.129,10.896 13.214,9.618C12.064,9.37 10.915,10.118 10.676,11.269C9.447,17.199 10.566,22.819 13.47,27.278Z" style="fill:rgb(159,207,159);fill-rule:nonzero;"/>
                        <path d="M29.122,36.27C29.092,36.4 29.062,36.53 29.022,36.66L29.012,36.66C17.382,35.13 21.452,39.53 13.472,27.28C10.567,22.819 9.45,17.194 10.68,11.27C10.918,10.124 12.058,9.373 13.202,9.619C14.428,9.883 15.603,10.234 16.722,10.67C15.282,16.81 16.382,22.67 19.382,27.28C25.552,36.76 24.512,36.27 29.122,36.27Z" style="fill:rgb(159,207,159);fill-rule:nonzero;"/>
                        <path d="M42.939,19.163C42.939,25.495 40.12,31.827 34.484,36.655L34.473,36.664C28.837,31.836 26.008,25.504 26.008,19.171C26.008,13.434 28.33,7.689 32.959,3.069C33.792,2.239 35.156,2.238 35.989,3.068C40.624,7.687 42.939,13.425 42.939,19.163Z" style="fill:rgb(159,207,159);fill-rule:nonzero;"/>
                        <path d="M32.502,19.17C32.502,24.13 34.242,29.11 37.722,33.34C36.782,34.51 35.702,35.62 34.482,36.66L34.472,36.66C28.832,31.84 26.012,25.5 26.012,19.17C26.012,13.433 28.328,7.688 32.96,3.067C33.787,2.242 35.145,2.228 35.972,3.053C36.599,3.678 37.181,4.324 37.722,4.99C34.242,9.23 32.502,14.21 32.502,19.17Z" style="fill:rgb(159,207,159);fill-rule:nonzero;"/>
                        <path d="M52.257,40.104L48.916,61.727C48.576,63.93 46.681,65.555 44.452,65.555L23.579,65.555C21.351,65.555 19.455,63.93 19.115,61.727L15.775,40.104L52.257,40.104ZM56.484,35.637C56.484,38.104 54.485,40.104 52.018,40.104L15.982,40.104C13.515,40.104 11.515,38.104 11.515,35.637C11.515,33.17 13.515,31.17 15.982,31.17L52.018,31.17C54.484,31.17 56.484,33.17 56.484,35.637Z" style="fill:rgb(237,203,171);fill-rule:nonzero;"/>
                        <path d="M35.082,65.55L23.582,65.55C21.352,65.55 19.452,63.93 19.112,61.73L15.772,40.1L27.272,40.1L30.622,61.73C30.962,63.93 32.852,65.55 35.082,65.55Z" style="fill:rgb(237,203,171);fill-rule:nonzero;"/>
                        <path d="M27.482,40.1L15.982,40.1C13.512,40.1 11.512,38.1 11.512,35.64C11.512,34.4 12.012,33.29 12.822,32.48C13.632,31.67 14.752,31.17 15.982,31.17L27.482,31.17C26.252,31.17 25.132,31.67 24.332,32.48C23.522,33.29 23.022,34.4 23.022,35.64C23.022,38.1 25.022,40.1 27.482,40.1Z" style="fill:rgb(237,203,171);fill-rule:nonzero;"/>
                        <path d="M53.388,30.351C54.101,29.558 54.778,28.73 55.368,27.824C58.503,23.009 59.545,17.058 58.303,11.066C57.951,9.37 56.271,8.276 54.574,8.64C53.912,8.783 53.264,8.956 52.627,9.15C52.15,7.367 51.481,5.605 50.601,3.894C49.814,2.362 47.927,1.745 46.398,2.516C44.098,3.677 42.054,5.136 40.273,6.81C39.271,5.232 38.077,3.737 36.695,2.36C35.469,1.139 33.478,1.142 32.253,2.361C30.706,3.905 29.395,5.595 28.325,7.385C26.412,5.465 24.162,3.809 21.601,2.516C20.072,1.745 18.186,2.362 17.398,3.894C16.519,5.604 15.861,7.367 15.387,9.149C14.745,8.954 14.091,8.784 13.425,8.64C11.717,8.279 10.047,9.376 9.697,11.066C8.455,17.059 9.498,23.01 12.632,27.824C13.264,28.795 13.82,29.66 14.315,30.433C12.114,31.14 10.516,33.204 10.516,35.637C10.516,38.282 12.403,40.492 14.901,40.996L18.127,61.88C18.545,64.589 20.838,66.554 23.579,66.554L44.452,66.554C47.193,66.554 49.486,64.589 49.905,61.88L53.132,40.99C55.614,40.474 57.485,38.27 57.485,35.637C57.485,33.097 55.74,30.962 53.388,30.351ZM54.997,10.595C55.62,10.462 56.221,10.879 56.345,11.472C57.478,16.944 56.536,22.364 53.692,26.732C52.863,28.006 51.882,29.147 50.79,30.171L41.067,30.171C42.936,26.774 43.939,23.039 43.939,19.163C43.939,18.436 43.9,17.712 43.83,16.993C46.649,13.813 50.512,11.565 54.997,10.595ZM47.3,4.301C47.847,4.024 48.534,4.246 48.823,4.808C49.663,6.441 50.28,8.124 50.719,9.823C47.962,10.925 45.497,12.506 43.443,14.497C43.009,12.462 42.288,10.486 41.308,8.607C43.025,6.919 45.022,5.452 47.3,4.301ZM33.665,3.777C34.112,3.332 34.836,3.332 35.283,3.776C39.575,8.052 41.939,13.516 41.939,19.163C41.939,23.061 40.827,26.811 38.755,30.171L30.192,30.171C28.121,26.813 27.008,23.065 27.008,19.172C27.008,13.529 29.372,8.062 33.665,3.777ZM19.177,4.809C19.465,4.25 20.148,4.022 20.7,4.301C23.258,5.593 25.476,7.273 27.324,9.23C26.382,11.171 25.722,13.211 25.354,15.303C23.149,12.927 20.404,11.053 17.273,9.809C17.714,8.114 18.339,6.437 19.177,4.809ZM11.655,11.472C11.781,10.867 12.389,10.466 13.002,10.595C17.969,11.668 22.174,14.307 25.037,18.05C25.018,18.423 25.008,18.797 25.008,19.171C25.008,23.042 26.012,26.774 27.881,30.17L16.521,30.17C16.501,30.139 16.484,30.112 16.463,30.08C15.857,29.13 15.149,28.024 14.308,26.732C11.464,22.364 10.521,16.945 11.655,11.472ZM47.928,61.575C47.661,63.301 46.199,64.554 44.452,64.554L23.579,64.554C21.832,64.554 20.37,63.301 20.103,61.575L16.941,41.104L51.09,41.104L47.928,61.575ZM52.018,39.104L15.982,39.104C14.071,39.104 12.515,37.548 12.515,35.637C12.515,33.726 14.07,32.171 15.982,32.171L52.018,32.171C53.929,32.171 55.485,33.726 55.485,35.637C55.485,37.548 53.929,39.104 52.018,39.104Z" style="fill:rgb(33,37,41);fill-rule:nonzero;"/>
                    </g>
                </g>
            </g>
        </g>
    </g>
</svg>
