<?xml version="1.0" encoding="UTF-8" standalone="no"?>
<!DOCTYPE svg PUBLIC "-//W3C//DTD SVG 1.1//EN" "http://www.w3.org/Graphics/SVG/1.1/DTD/svg11.dtd">
<svg width="100%" height="100%" viewBox="0 0 32 32" version="1.1" xmlns="http://www.w3.org/2000/svg" xmlns:xlink="http://www.w3.org/1999/xlink" xml:space="preserve" xmlns:serif="http://www.serif.com/" style="fill-rule:evenodd;clip-rule:evenodd;stroke-linejoin:round;stroke-miterlimit:2;">
    <g transform="matrix(0.981322,0,0,0.981322,0.29884,0.559409)">
        <path d="M26.752,3.56L20.357,3.56L20.357,0.963C20.357,0.414 19.906,-0.037 19.357,-0.037L12.641,-0.037C12.092,-0.037 11.641,0.414 11.641,0.963L11.641,3.563L5.248,3.563C3.547,3.563 2.148,4.962 2.148,6.663L2.148,8.853C2.148,9.402 2.599,9.853 3.148,9.853L3.828,9.853L3.828,28.939C3.828,30.64 5.227,32.039 6.928,32.039L25.072,32.039C26.773,32.039 28.172,30.64 28.172,28.939L28.172,9.846L28.852,9.846C29.401,9.846 29.852,9.395 29.852,8.846L29.852,6.656C29.85,4.957 28.451,3.56 26.752,3.56ZM13.641,1.96L18.357,1.96L18.357,3.56L13.641,3.56L13.641,1.96ZM4.15,6.656C4.15,6.053 4.647,5.556 5.25,5.556L26.75,5.556C27.353,5.556 27.85,6.053 27.85,6.656L27.85,7.846L4.15,7.846L4.15,6.656ZM26.17,28.939C26.17,29.542 25.673,30.039 25.07,30.039L6.928,30.039C6.325,30.039 5.828,29.542 5.828,28.939L5.828,9.846L26.17,9.846L26.17,28.939Z" style="fill:rgb(33,37,41);fill-rule:nonzero;stroke:rgb(33,37,41);stroke-width:1.02px;"/>
    </g>
    <g transform="matrix(0.981322,0,0,0.981322,0.29884,0.559409)">
        <path d="M10.586,25.275C11.135,25.275 11.586,24.824 11.586,24.275L11.586,14.682C11.586,14.133 11.135,13.682 10.586,13.682C10.037,13.682 9.586,14.133 9.586,14.682L9.586,24.275C9.586,24.824 10.037,25.275 10.586,25.275ZM16,26.324C16.549,26.324 17,25.873 17,25.324L17,13.633C17,13.084 16.549,12.633 16,12.633C15.451,12.633 15,13.084 15,13.633L15,25.324C15,25.873 15.451,26.324 16,26.324ZM21.412,25.275C21.961,25.275 22.412,24.824 22.412,24.275L22.412,14.682C22.412,14.133 21.961,13.682 21.412,13.682C20.863,13.682 20.412,14.133 20.412,14.682L20.412,24.275C20.412,24.824 20.863,25.275 21.412,25.275Z" style="fill:rgb(33,37,41);fill-rule:nonzero;stroke:rgb(33,37,41);stroke-width:1.02px;"/>
    </g>
</svg>
