<?xml version="1.0" encoding="UTF-8" standalone="no"?>
<!DOCTYPE svg PUBLIC "-//W3C//DTD SVG 1.1//EN" "http://www.w3.org/Graphics/SVG/1.1/DTD/svg11.dtd">
<svg width="100%" height="100%" viewBox="0 0 24 24" version="1.1" xmlns="http://www.w3.org/2000/svg" xmlns:xlink="http://www.w3.org/1999/xlink" xml:space="preserve" xmlns:serif="http://www.serif.com/" style="fill-rule:evenodd;clip-rule:evenodd;stroke-linejoin:round;stroke-miterlimit:2;">
    <g transform="matrix(1.2,0,0,1.2,-2.4,-2.4)">
        <path d="M6.804,15C6.626,14.691 6.295,14.5 5.938,14.5C5.763,14.5 5.59,14.546 5.438,14.634L3.706,15.634C3.397,15.812 3.206,16.143 3.206,16.5C3.206,17.048 3.657,17.5 4.206,17.5C4.381,17.5 4.554,17.454 4.706,17.366L6.438,16.366C6.913,16.092 7.078,15.475 6.804,15ZM3.706,8.366L5.438,9.366C5.59,9.454 5.763,9.5 5.938,9.5C6.487,9.5 6.939,9.049 6.939,8.5C6.939,8.143 6.747,7.812 6.438,7.634L4.706,6.634C4.554,6.546 4.381,6.5 4.206,6.5C3.657,6.5 3.206,6.952 3.206,7.5C3.206,7.857 3.397,8.188 3.706,8.366ZM6,12C6,11.451 5.549,11 5,11L3,11C2.451,11 2,11.451 2,12C2,12.549 2.451,13 3,13L5,13C5.549,13 6,12.549 6,12ZM17.196,9C17.47,9.475 18.087,9.64 18.562,9.366L20.294,8.366C20.604,8.188 20.795,7.857 20.795,7.5C20.795,6.951 20.344,6.5 19.795,6.5C19.619,6.5 19.447,6.546 19.294,6.634L17.562,7.634C17.087,7.908 16.922,8.525 17.196,9ZM15,6.804C15.475,7.078 16.092,6.913 16.366,6.438L17.366,4.706C17.454,4.553 17.5,4.381 17.5,4.205C17.5,3.656 17.049,3.205 16.5,3.205C16.143,3.205 15.812,3.396 15.634,3.706L14.634,5.438C14.36,5.913 14.525,6.53 15,6.804ZM20.294,15.634L18.562,14.634C18.41,14.546 18.237,14.5 18.062,14.5C17.513,14.5 17.061,14.951 17.061,15.5C17.061,15.857 17.253,16.188 17.562,16.366L19.294,17.366C19.446,17.454 19.619,17.5 19.794,17.5C20.343,17.5 20.794,17.048 20.794,16.5C20.794,16.143 20.603,15.812 20.294,15.634ZM16.366,17.562C16.188,17.253 15.857,17.061 15.5,17.061C14.951,17.061 14.5,17.513 14.5,18.062C14.5,18.237 14.546,18.41 14.634,18.562L15.634,20.294C15.812,20.604 16.143,20.795 16.5,20.795C17.049,20.795 17.5,20.344 17.5,19.795C17.5,19.619 17.454,19.447 17.366,19.294L16.366,17.562ZM21,11L19,11C18.451,11 18,11.451 18,12C18,12.549 18.451,13 19,13L21,13C21.549,13 22,12.549 22,12C22,11.451 21.549,11 21,11ZM12,18C11.451,18 11,18.451 11,19L11,21C11,21.549 11.451,22 12,22C12.549,22 13,21.549 13,21L13,19C13,18.451 12.549,18 12,18ZM9,17.196C8.848,17.108 8.675,17.062 8.5,17.062C8.143,17.062 7.812,17.253 7.634,17.562L6.634,19.294C6.546,19.446 6.5,19.619 6.5,19.794C6.5,20.343 6.952,20.794 7.5,20.794C7.857,20.794 8.188,20.603 8.366,20.294L9.366,18.562C9.64,18.087 9.475,17.47 9,17.196ZM12,2C11.451,2 11,2.451 11,3L11,5C11,5.549 11.451,6 12,6C12.549,6 13,5.549 13,5L13,3C13,2.451 12.549,2 12,2Z" style="fill:rgb(33,37,41);fill-rule:nonzero;"/>
    </g>
</svg>
