<?xml version="1.0" encoding="UTF-8" standalone="no"?>
<!DOCTYPE svg PUBLIC "-//W3C//DTD SVG 1.1//EN" "http://www.w3.org/Graphics/SVG/1.1/DTD/svg11.dtd">
<svg width="100%" height="100%" viewBox="0 0 142 37" version="1.1" xmlns="http://www.w3.org/2000/svg" xmlns:xlink="http://www.w3.org/1999/xlink" xml:space="preserve" xmlns:serif="http://www.serif.com/" style="fill-rule:evenodd;clip-rule:evenodd;stroke-linejoin:round;stroke-miterlimit:2;">
    <g id="Artboard2" transform="matrix(0.626446,0,0,0.515151,-1.73076,-2.21095)">
        <rect x="2.763" y="4.292" width="225.223" height="71.371" style="fill:none;"/>
        <clipPath id="_clip1">
            <rect x="2.763" y="4.292" width="225.223" height="71.371"/>
        </clipPath>
        <g clip-path="url(#_clip1)">
            <g id="Artboard1" transform="matrix(2.09329,0,0,1.64311,9.54522,256.943)">
                <rect x="-20.537" y="-175.556" width="212.136" height="85.413" style="fill:none;"/>
                <g transform="matrix(1,0,0,1,-2.28774,-1.25169)">
                    <g transform="matrix(0.698246,0,0,1.08385,-29.5615,-178.409)">
                        <g transform="matrix(9.81008,0,0,9.81008,78.8701,57.54)">
                            <path d="M0.292,0.01C0.242,0.01 0.199,0.003 0.162,-0.012C0.124,-0.027 0.088,-0.05 0.054,-0.082C0.049,-0.086 0.045,-0.091 0.042,-0.097C0.039,-0.103 0.038,-0.109 0.038,-0.116C0.038,-0.126 0.041,-0.136 0.049,-0.144C0.057,-0.152 0.067,-0.157 0.078,-0.157C0.087,-0.157 0.095,-0.153 0.103,-0.146C0.129,-0.12 0.157,-0.101 0.188,-0.088C0.218,-0.074 0.252,-0.068 0.29,-0.068C0.319,-0.068 0.345,-0.072 0.369,-0.082C0.393,-0.091 0.412,-0.104 0.426,-0.121C0.44,-0.137 0.447,-0.157 0.447,-0.179C0.446,-0.206 0.439,-0.228 0.424,-0.245C0.409,-0.262 0.388,-0.277 0.361,-0.288C0.335,-0.3 0.304,-0.31 0.27,-0.318C0.239,-0.325 0.211,-0.334 0.186,-0.345C0.16,-0.355 0.138,-0.368 0.119,-0.384C0.1,-0.4 0.085,-0.419 0.075,-0.441C0.065,-0.463 0.06,-0.49 0.06,-0.52C0.06,-0.558 0.07,-0.591 0.09,-0.62C0.11,-0.648 0.137,-0.67 0.173,-0.686C0.208,-0.702 0.249,-0.71 0.295,-0.71C0.335,-0.71 0.374,-0.703 0.41,-0.69C0.447,-0.677 0.476,-0.658 0.498,-0.635C0.511,-0.622 0.518,-0.61 0.518,-0.598C0.518,-0.588 0.513,-0.579 0.505,-0.571C0.497,-0.562 0.488,-0.558 0.477,-0.558C0.469,-0.558 0.463,-0.561 0.457,-0.566C0.446,-0.578 0.431,-0.59 0.414,-0.6C0.396,-0.61 0.377,-0.618 0.357,-0.624C0.336,-0.63 0.315,-0.633 0.295,-0.633C0.264,-0.633 0.237,-0.628 0.214,-0.619C0.191,-0.61 0.172,-0.597 0.16,-0.581C0.147,-0.565 0.14,-0.546 0.14,-0.523C0.14,-0.498 0.147,-0.477 0.162,-0.461C0.177,-0.444 0.196,-0.431 0.221,-0.421C0.246,-0.41 0.273,-0.401 0.303,-0.393C0.335,-0.385 0.365,-0.375 0.393,-0.365C0.421,-0.355 0.445,-0.342 0.465,-0.327C0.485,-0.311 0.501,-0.292 0.512,-0.268C0.523,-0.245 0.528,-0.216 0.528,-0.181C0.528,-0.144 0.518,-0.111 0.497,-0.083C0.476,-0.054 0.448,-0.031 0.412,-0.015C0.377,0.001 0.337,0.01 0.292,0.01Z" style="fill:rgb(33,37,41);fill-rule:nonzero;"/>
                        </g>
                        <g transform="matrix(9.81008,0,0,9.81008,84.4618,57.54)">
                            <path d="M0.313,0.01C0.259,0.01 0.213,-0.001 0.173,-0.024C0.133,-0.046 0.101,-0.077 0.079,-0.117C0.057,-0.157 0.046,-0.203 0.046,-0.255C0.046,-0.313 0.057,-0.362 0.081,-0.403C0.103,-0.444 0.133,-0.475 0.17,-0.497C0.207,-0.519 0.246,-0.53 0.288,-0.53C0.319,-0.53 0.348,-0.524 0.377,-0.513C0.405,-0.501 0.431,-0.485 0.453,-0.463C0.475,-0.441 0.493,-0.415 0.506,-0.385C0.519,-0.355 0.526,-0.321 0.527,-0.284C0.527,-0.273 0.523,-0.264 0.515,-0.257C0.507,-0.25 0.497,-0.246 0.487,-0.246L0.092,-0.246L0.074,-0.315L0.459,-0.315L0.443,-0.301L0.443,-0.323C0.44,-0.35 0.431,-0.374 0.416,-0.394C0.4,-0.413 0.381,-0.428 0.358,-0.439C0.336,-0.45 0.312,-0.455 0.288,-0.455C0.268,-0.455 0.248,-0.451 0.228,-0.444C0.208,-0.437 0.191,-0.426 0.175,-0.41C0.159,-0.395 0.147,-0.375 0.137,-0.35C0.128,-0.325 0.123,-0.296 0.123,-0.261C0.123,-0.222 0.131,-0.188 0.147,-0.159C0.162,-0.129 0.184,-0.106 0.212,-0.089C0.24,-0.072 0.273,-0.064 0.31,-0.064C0.333,-0.064 0.354,-0.067 0.371,-0.073C0.388,-0.079 0.403,-0.086 0.416,-0.095C0.428,-0.104 0.439,-0.114 0.448,-0.123C0.456,-0.129 0.465,-0.132 0.473,-0.132C0.483,-0.132 0.491,-0.129 0.497,-0.122C0.504,-0.115 0.507,-0.107 0.507,-0.098C0.507,-0.087 0.502,-0.077 0.491,-0.068C0.472,-0.047 0.447,-0.029 0.415,-0.013C0.383,0.002 0.349,0.01 0.313,0.01Z" style="fill:rgb(33,37,41);fill-rule:nonzero;"/>
                        </g>
                        <g transform="matrix(9.81008,0,0,9.81008,90.1124,57.54)">
                            <path d="M0.162,-0.041C0.162,-0.029 0.158,-0.02 0.15,-0.012C0.142,-0.004 0.132,-0 0.121,-0C0.11,-0 0.1,-0.004 0.093,-0.012C0.085,-0.02 0.082,-0.029 0.082,-0.041L0.082,-0.7C0.082,-0.711 0.085,-0.72 0.093,-0.728C0.101,-0.736 0.111,-0.74 0.122,-0.74C0.134,-0.74 0.143,-0.736 0.151,-0.728C0.158,-0.72 0.162,-0.711 0.162,-0.7L0.162,-0.041Z" style="fill:rgb(33,37,41);fill-rule:nonzero;"/>
                        </g>
                        <g transform="matrix(9.81008,0,0,9.81008,92.4276,57.54)">
                            <path d="M0.29,-0.738C0.301,-0.738 0.313,-0.736 0.325,-0.734C0.338,-0.731 0.348,-0.726 0.357,-0.72C0.366,-0.713 0.371,-0.704 0.371,-0.693C0.371,-0.682 0.367,-0.674 0.361,-0.667C0.354,-0.66 0.346,-0.656 0.337,-0.656C0.331,-0.656 0.322,-0.658 0.312,-0.661C0.301,-0.665 0.29,-0.667 0.279,-0.667C0.264,-0.667 0.251,-0.663 0.242,-0.657C0.232,-0.65 0.225,-0.641 0.22,-0.63C0.216,-0.619 0.214,-0.607 0.214,-0.594L0.214,-0.041C0.214,-0.029 0.21,-0.02 0.202,-0.012C0.194,-0.004 0.185,-0 0.174,-0C0.162,-0 0.152,-0.004 0.145,-0.012C0.137,-0.02 0.134,-0.029 0.134,-0.041L0.134,-0.593C0.134,-0.637 0.147,-0.673 0.175,-0.699C0.203,-0.725 0.241,-0.738 0.29,-0.738ZM0.318,-0.509C0.329,-0.509 0.338,-0.505 0.345,-0.499C0.352,-0.492 0.356,-0.483 0.356,-0.472C0.356,-0.461 0.352,-0.452 0.345,-0.446C0.338,-0.439 0.329,-0.435 0.318,-0.435L0.067,-0.435C0.056,-0.435 0.047,-0.439 0.04,-0.446C0.033,-0.453 0.029,-0.462 0.029,-0.472C0.029,-0.483 0.033,-0.492 0.04,-0.499C0.047,-0.506 0.056,-0.509 0.067,-0.509L0.318,-0.509Z" style="fill:rgb(33,37,41);fill-rule:nonzero;"/>
                        </g>
                        <g transform="matrix(9.81008,0,0,9.81008,95.9004,57.54)">
                            <path d="M0.095,-0.271C0.084,-0.271 0.074,-0.275 0.067,-0.283C0.059,-0.29 0.055,-0.3 0.055,-0.312C0.055,-0.323 0.059,-0.332 0.067,-0.34C0.074,-0.347 0.084,-0.351 0.095,-0.351L0.297,-0.351C0.308,-0.351 0.318,-0.347 0.325,-0.339C0.333,-0.331 0.337,-0.321 0.337,-0.31C0.337,-0.299 0.333,-0.289 0.325,-0.282C0.318,-0.275 0.308,-0.271 0.297,-0.271L0.095,-0.271Z" style="fill:rgb(33,37,41);fill-rule:nonzero;"/>
                        </g>
                        <g transform="matrix(9.81008,0,0,9.81008,99.9029,57.54)">
                            <path d="M0.592,-0.654C0.603,-0.648 0.609,-0.639 0.611,-0.627C0.613,-0.615 0.61,-0.604 0.602,-0.594C0.596,-0.585 0.588,-0.581 0.579,-0.58C0.57,-0.579 0.56,-0.581 0.551,-0.586C0.529,-0.599 0.505,-0.609 0.48,-0.617C0.455,-0.625 0.428,-0.629 0.4,-0.629C0.36,-0.629 0.324,-0.622 0.292,-0.608C0.259,-0.595 0.231,-0.576 0.207,-0.551C0.183,-0.526 0.164,-0.497 0.151,-0.463C0.138,-0.429 0.131,-0.391 0.131,-0.35C0.131,-0.306 0.138,-0.267 0.152,-0.232C0.166,-0.197 0.185,-0.168 0.209,-0.144C0.233,-0.119 0.262,-0.101 0.294,-0.088C0.327,-0.075 0.362,-0.069 0.4,-0.069C0.427,-0.069 0.454,-0.073 0.479,-0.08C0.504,-0.087 0.528,-0.098 0.551,-0.112C0.56,-0.117 0.569,-0.118 0.579,-0.117C0.588,-0.116 0.596,-0.111 0.603,-0.103C0.611,-0.092 0.614,-0.081 0.612,-0.069C0.61,-0.058 0.603,-0.049 0.593,-0.044C0.576,-0.034 0.557,-0.024 0.536,-0.016C0.514,-0.008 0.492,-0.002 0.469,0.003C0.446,0.008 0.423,0.01 0.4,0.01C0.352,0.01 0.306,0.002 0.264,-0.015C0.221,-0.032 0.184,-0.056 0.151,-0.087C0.118,-0.118 0.092,-0.156 0.073,-0.2C0.054,-0.244 0.045,-0.294 0.045,-0.35C0.045,-0.402 0.054,-0.449 0.072,-0.493C0.09,-0.536 0.115,-0.574 0.147,-0.606C0.179,-0.638 0.217,-0.663 0.26,-0.681C0.303,-0.699 0.349,-0.708 0.4,-0.708C0.435,-0.708 0.468,-0.703 0.501,-0.694C0.534,-0.684 0.564,-0.671 0.592,-0.654Z" style="fill:rgb(33,37,41);fill-rule:nonzero;"/>
                        </g>
                        <g transform="matrix(9.81008,0,0,9.81008,106.593,57.54)">
                            <path d="M0.324,-0.525C0.368,-0.525 0.402,-0.516 0.428,-0.497C0.454,-0.478 0.472,-0.452 0.483,-0.42C0.494,-0.388 0.5,-0.353 0.5,-0.315L0.5,-0.041C0.5,-0.029 0.496,-0.02 0.489,-0.012C0.481,-0.004 0.471,-0 0.46,-0C0.448,-0 0.439,-0.004 0.431,-0.012C0.424,-0.02 0.42,-0.029 0.42,-0.041L0.42,-0.315C0.42,-0.34 0.416,-0.363 0.409,-0.383C0.402,-0.404 0.39,-0.42 0.373,-0.433C0.356,-0.445 0.332,-0.451 0.303,-0.451C0.276,-0.451 0.251,-0.445 0.228,-0.433C0.205,-0.42 0.187,-0.404 0.174,-0.383C0.161,-0.363 0.154,-0.34 0.154,-0.315L0.154,-0.041C0.154,-0.029 0.15,-0.02 0.143,-0.012C0.135,-0.004 0.125,-0 0.114,-0C0.102,-0 0.093,-0.004 0.085,-0.012C0.078,-0.02 0.074,-0.029 0.074,-0.041L0.074,-0.7C0.074,-0.711 0.078,-0.72 0.086,-0.728C0.093,-0.736 0.103,-0.74 0.114,-0.74C0.126,-0.74 0.135,-0.736 0.143,-0.728C0.15,-0.72 0.154,-0.711 0.154,-0.7L0.154,-0.401L0.134,-0.379C0.137,-0.396 0.144,-0.414 0.156,-0.431C0.167,-0.449 0.181,-0.465 0.199,-0.479C0.216,-0.493 0.236,-0.504 0.257,-0.513C0.278,-0.521 0.301,-0.525 0.324,-0.525Z" style="fill:rgb(33,37,41);fill-rule:nonzero;"/>
                        </g>
                        <g transform="matrix(9.81008,0,0,9.81008,112.303,57.54)">
                            <path d="M0.313,0.01C0.259,0.01 0.213,-0.001 0.173,-0.024C0.133,-0.046 0.101,-0.077 0.079,-0.117C0.057,-0.157 0.046,-0.203 0.046,-0.255C0.046,-0.313 0.057,-0.362 0.081,-0.403C0.103,-0.444 0.133,-0.475 0.17,-0.497C0.207,-0.519 0.246,-0.53 0.288,-0.53C0.319,-0.53 0.348,-0.524 0.377,-0.513C0.405,-0.501 0.431,-0.485 0.453,-0.463C0.475,-0.441 0.493,-0.415 0.506,-0.385C0.519,-0.355 0.526,-0.321 0.527,-0.284C0.527,-0.273 0.523,-0.264 0.515,-0.257C0.507,-0.25 0.497,-0.246 0.487,-0.246L0.092,-0.246L0.074,-0.315L0.459,-0.315L0.443,-0.301L0.443,-0.323C0.44,-0.35 0.431,-0.374 0.416,-0.394C0.4,-0.413 0.381,-0.428 0.358,-0.439C0.336,-0.45 0.312,-0.455 0.288,-0.455C0.268,-0.455 0.248,-0.451 0.228,-0.444C0.208,-0.437 0.191,-0.426 0.175,-0.41C0.159,-0.395 0.147,-0.375 0.137,-0.35C0.128,-0.325 0.123,-0.296 0.123,-0.261C0.123,-0.222 0.131,-0.188 0.147,-0.159C0.162,-0.129 0.184,-0.106 0.212,-0.089C0.24,-0.072 0.273,-0.064 0.31,-0.064C0.333,-0.064 0.354,-0.067 0.371,-0.073C0.388,-0.079 0.403,-0.086 0.416,-0.095C0.428,-0.104 0.439,-0.114 0.448,-0.123C0.456,-0.129 0.465,-0.132 0.473,-0.132C0.483,-0.132 0.491,-0.129 0.497,-0.122C0.504,-0.115 0.507,-0.107 0.507,-0.098C0.507,-0.087 0.502,-0.077 0.491,-0.068C0.472,-0.047 0.447,-0.029 0.415,-0.013C0.383,0.002 0.349,0.01 0.313,0.01Z" style="fill:rgb(33,37,41);fill-rule:nonzero;"/>
                        </g>
                        <g transform="matrix(9.81008,0,0,9.81008,117.953,57.54)">
                            <path d="M0.304,-0.53C0.337,-0.53 0.368,-0.526 0.396,-0.519C0.423,-0.512 0.444,-0.502 0.461,-0.489C0.476,-0.476 0.485,-0.462 0.485,-0.446C0.485,-0.437 0.482,-0.428 0.476,-0.421C0.47,-0.413 0.462,-0.409 0.452,-0.409C0.443,-0.409 0.435,-0.41 0.43,-0.414C0.424,-0.417 0.419,-0.422 0.414,-0.427C0.409,-0.432 0.402,-0.437 0.393,-0.441C0.385,-0.445 0.373,-0.449 0.358,-0.452C0.343,-0.455 0.327,-0.456 0.312,-0.456C0.275,-0.456 0.243,-0.447 0.215,-0.43C0.187,-0.413 0.166,-0.389 0.15,-0.36C0.134,-0.331 0.126,-0.297 0.126,-0.26C0.126,-0.223 0.134,-0.189 0.149,-0.16C0.164,-0.13 0.186,-0.107 0.213,-0.09C0.24,-0.073 0.272,-0.064 0.308,-0.064C0.331,-0.064 0.35,-0.066 0.364,-0.07C0.378,-0.074 0.389,-0.078 0.399,-0.084C0.411,-0.09 0.42,-0.097 0.426,-0.104C0.432,-0.11 0.441,-0.114 0.452,-0.114C0.463,-0.114 0.472,-0.11 0.478,-0.103C0.484,-0.096 0.488,-0.087 0.488,-0.076C0.488,-0.064 0.479,-0.051 0.463,-0.038C0.446,-0.024 0.423,-0.013 0.395,-0.004C0.367,0.005 0.335,0.01 0.299,0.01C0.248,0.01 0.204,-0.002 0.166,-0.026C0.128,-0.049 0.098,-0.081 0.078,-0.122C0.056,-0.163 0.046,-0.209 0.046,-0.26C0.046,-0.311 0.057,-0.356 0.079,-0.397C0.1,-0.438 0.13,-0.47 0.169,-0.494C0.208,-0.518 0.253,-0.53 0.304,-0.53Z" style="fill:rgb(33,37,41);fill-rule:nonzero;"/>
                        </g>
                        <g transform="matrix(9.81008,0,0,9.81008,123.221,57.54)">
                            <path d="M0.122,-0C0.11,-0 0.1,-0.004 0.093,-0.012C0.085,-0.02 0.082,-0.029 0.082,-0.041L0.082,-0.7C0.082,-0.711 0.085,-0.72 0.093,-0.728C0.1,-0.736 0.11,-0.74 0.122,-0.74C0.133,-0.74 0.143,-0.736 0.15,-0.728C0.158,-0.72 0.162,-0.711 0.162,-0.7L0.162,-0.041C0.162,-0.029 0.158,-0.02 0.15,-0.012C0.143,-0.004 0.133,-0 0.122,-0ZM0.454,-0.52C0.464,-0.52 0.473,-0.516 0.481,-0.508C0.489,-0.499 0.493,-0.491 0.493,-0.482C0.493,-0.47 0.487,-0.46 0.477,-0.452L0.153,-0.169L0.15,-0.262L0.426,-0.508C0.434,-0.516 0.443,-0.52 0.454,-0.52ZM0.465,-0.001C0.453,-0.001 0.443,-0.005 0.435,-0.014L0.222,-0.241L0.282,-0.296L0.493,-0.07C0.501,-0.061 0.505,-0.051 0.505,-0.04C0.505,-0.028 0.5,-0.018 0.491,-0.011C0.481,-0.004 0.472,-0.001 0.465,-0.001Z" style="fill:rgb(33,37,41);fill-rule:nonzero;"/>
                        </g>
                        <g transform="matrix(9.81008,0,0,9.81008,128.342,57.54)">
                            <path d="M0.565,-0.26C0.565,-0.208 0.553,-0.161 0.53,-0.121C0.507,-0.08 0.476,-0.048 0.438,-0.025C0.399,-0.002 0.355,0.01 0.306,0.01C0.257,0.01 0.213,-0.002 0.174,-0.025C0.135,-0.048 0.103,-0.08 0.081,-0.121C0.057,-0.161 0.046,-0.208 0.046,-0.26C0.046,-0.312 0.057,-0.358 0.081,-0.399C0.103,-0.44 0.135,-0.472 0.174,-0.495C0.213,-0.518 0.257,-0.53 0.306,-0.53C0.355,-0.53 0.399,-0.518 0.438,-0.495C0.476,-0.472 0.507,-0.44 0.53,-0.399C0.553,-0.358 0.565,-0.312 0.565,-0.26ZM0.485,-0.26C0.485,-0.298 0.477,-0.332 0.461,-0.362C0.445,-0.391 0.424,-0.414 0.397,-0.431C0.37,-0.448 0.339,-0.456 0.306,-0.456C0.272,-0.456 0.241,-0.448 0.214,-0.431C0.187,-0.414 0.166,-0.391 0.15,-0.362C0.134,-0.332 0.126,-0.298 0.126,-0.26C0.126,-0.222 0.134,-0.188 0.15,-0.159C0.166,-0.129 0.187,-0.106 0.214,-0.089C0.241,-0.072 0.272,-0.064 0.306,-0.064C0.339,-0.064 0.37,-0.072 0.397,-0.089C0.424,-0.106 0.445,-0.129 0.461,-0.159C0.477,-0.188 0.485,-0.222 0.485,-0.26Z" style="fill:rgb(33,37,41);fill-rule:nonzero;"/>
                        </g>
                        <g transform="matrix(9.81008,0,0,9.81008,134.395,57.54)">
                            <path d="M0.461,-0.517C0.473,-0.517 0.482,-0.513 0.49,-0.505C0.497,-0.497 0.501,-0.488 0.501,-0.477L0.501,-0.204C0.501,-0.136 0.482,-0.084 0.444,-0.047C0.406,-0.01 0.354,0.008 0.287,0.008C0.22,0.008 0.168,-0.01 0.131,-0.047C0.093,-0.084 0.074,-0.136 0.074,-0.204L0.074,-0.477C0.074,-0.488 0.078,-0.497 0.086,-0.505C0.093,-0.513 0.103,-0.517 0.114,-0.517C0.126,-0.517 0.135,-0.513 0.143,-0.505C0.15,-0.497 0.154,-0.488 0.154,-0.477L0.154,-0.204C0.154,-0.158 0.166,-0.124 0.189,-0.101C0.212,-0.078 0.245,-0.066 0.287,-0.066C0.33,-0.066 0.363,-0.078 0.386,-0.101C0.409,-0.124 0.421,-0.158 0.421,-0.204L0.421,-0.477C0.421,-0.488 0.425,-0.497 0.432,-0.505C0.44,-0.513 0.449,-0.517 0.461,-0.517Z" style="fill:rgb(33,37,41);fill-rule:nonzero;"/>
                        </g>
                        <g transform="matrix(9.81008,0,0,9.81008,140.114,57.54)">
                            <path d="M0.054,-0.514L0.289,-0.514C0.299,-0.514 0.308,-0.51 0.315,-0.503C0.322,-0.496 0.326,-0.487 0.326,-0.477C0.326,-0.466 0.322,-0.458 0.315,-0.451C0.308,-0.444 0.299,-0.44 0.289,-0.44L0.054,-0.44C0.044,-0.44 0.035,-0.444 0.028,-0.451C0.02,-0.458 0.017,-0.467 0.017,-0.478C0.017,-0.488 0.02,-0.497 0.028,-0.504C0.035,-0.511 0.044,-0.514 0.054,-0.514ZM0.159,-0.65C0.17,-0.65 0.18,-0.646 0.187,-0.638C0.194,-0.63 0.198,-0.621 0.198,-0.61L0.198,-0.127C0.198,-0.111 0.2,-0.099 0.205,-0.091C0.21,-0.083 0.216,-0.077 0.223,-0.074C0.231,-0.071 0.238,-0.07 0.246,-0.07C0.252,-0.07 0.258,-0.071 0.263,-0.073C0.268,-0.075 0.274,-0.077 0.281,-0.077C0.288,-0.077 0.294,-0.073 0.299,-0.067C0.305,-0.061 0.308,-0.053 0.308,-0.043C0.308,-0.031 0.301,-0.02 0.287,-0.012C0.273,-0.004 0.257,-0 0.24,-0C0.231,-0 0.219,-0.001 0.206,-0.002C0.192,-0.003 0.178,-0.008 0.165,-0.015C0.152,-0.022 0.14,-0.034 0.132,-0.051C0.123,-0.068 0.118,-0.092 0.118,-0.123L0.118,-0.61C0.118,-0.621 0.122,-0.63 0.13,-0.638C0.138,-0.646 0.147,-0.65 0.159,-0.65Z" style="fill:rgb(33,37,41);fill-rule:nonzero;"/>
                        </g>
                        <g transform="matrix(9.81008,0,0,9.81008,146.256,57.54)">
                            <path d="M0.292,0.01C0.242,0.01 0.199,0.003 0.162,-0.012C0.124,-0.027 0.088,-0.05 0.054,-0.082C0.049,-0.086 0.045,-0.091 0.042,-0.097C0.039,-0.103 0.038,-0.109 0.038,-0.116C0.038,-0.126 0.041,-0.136 0.049,-0.144C0.057,-0.152 0.067,-0.157 0.078,-0.157C0.087,-0.157 0.095,-0.153 0.103,-0.146C0.129,-0.12 0.157,-0.101 0.188,-0.088C0.218,-0.074 0.252,-0.068 0.29,-0.068C0.319,-0.068 0.345,-0.072 0.369,-0.082C0.393,-0.091 0.412,-0.104 0.426,-0.121C0.44,-0.137 0.447,-0.157 0.447,-0.179C0.446,-0.206 0.439,-0.228 0.424,-0.245C0.409,-0.262 0.388,-0.277 0.361,-0.288C0.335,-0.3 0.304,-0.31 0.27,-0.318C0.239,-0.325 0.211,-0.334 0.186,-0.345C0.16,-0.355 0.138,-0.368 0.119,-0.384C0.1,-0.4 0.085,-0.419 0.075,-0.441C0.065,-0.463 0.06,-0.49 0.06,-0.52C0.06,-0.558 0.07,-0.591 0.09,-0.62C0.11,-0.648 0.137,-0.67 0.173,-0.686C0.208,-0.702 0.249,-0.71 0.295,-0.71C0.335,-0.71 0.374,-0.703 0.41,-0.69C0.447,-0.677 0.476,-0.658 0.498,-0.635C0.511,-0.622 0.518,-0.61 0.518,-0.598C0.518,-0.588 0.513,-0.579 0.505,-0.571C0.497,-0.562 0.488,-0.558 0.477,-0.558C0.469,-0.558 0.463,-0.561 0.457,-0.566C0.446,-0.578 0.431,-0.59 0.414,-0.6C0.396,-0.61 0.377,-0.618 0.357,-0.624C0.336,-0.63 0.315,-0.633 0.295,-0.633C0.264,-0.633 0.237,-0.628 0.214,-0.619C0.191,-0.61 0.172,-0.597 0.16,-0.581C0.147,-0.565 0.14,-0.546 0.14,-0.523C0.14,-0.498 0.147,-0.477 0.162,-0.461C0.177,-0.444 0.196,-0.431 0.221,-0.421C0.246,-0.41 0.273,-0.401 0.303,-0.393C0.335,-0.385 0.365,-0.375 0.393,-0.365C0.421,-0.355 0.445,-0.342 0.465,-0.327C0.485,-0.311 0.501,-0.292 0.512,-0.268C0.523,-0.245 0.528,-0.216 0.528,-0.181C0.528,-0.144 0.518,-0.111 0.497,-0.083C0.476,-0.054 0.448,-0.031 0.412,-0.015C0.377,0.001 0.337,0.01 0.292,0.01Z" style="fill:rgb(33,37,41);fill-rule:nonzero;"/>
                        </g>
                        <g transform="matrix(9.81008,0,0,9.81008,151.847,57.54)">
                            <path d="M0.461,-0.525C0.472,-0.525 0.482,-0.521 0.489,-0.513C0.497,-0.505 0.501,-0.496 0.501,-0.485L0.501,-0.049C0.501,0.007 0.49,0.054 0.468,0.091C0.446,0.128 0.417,0.155 0.38,0.173C0.343,0.191 0.301,0.2 0.254,0.2C0.228,0.2 0.203,0.197 0.179,0.192C0.155,0.187 0.135,0.18 0.12,0.171C0.107,0.165 0.098,0.158 0.093,0.149C0.088,0.14 0.087,0.131 0.091,0.121C0.095,0.108 0.102,0.1 0.111,0.095C0.12,0.091 0.13,0.091 0.14,0.095C0.151,0.1 0.166,0.107 0.186,0.115C0.206,0.123 0.229,0.127 0.255,0.127C0.29,0.127 0.319,0.12 0.344,0.107C0.369,0.094 0.388,0.075 0.401,0.049C0.414,0.023 0.421,-0.009 0.421,-0.047L0.421,-0.118L0.433,-0.093C0.422,-0.072 0.408,-0.054 0.39,-0.039C0.372,-0.023 0.351,-0.011 0.328,-0.003C0.304,0.006 0.279,0.01 0.251,0.01C0.213,0.01 0.18,0.002 0.154,-0.015C0.128,-0.031 0.108,-0.053 0.094,-0.082C0.081,-0.111 0.074,-0.145 0.074,-0.183L0.074,-0.485C0.074,-0.496 0.078,-0.505 0.085,-0.513C0.093,-0.521 0.102,-0.525 0.114,-0.525C0.126,-0.525 0.135,-0.521 0.143,-0.513C0.15,-0.505 0.154,-0.496 0.154,-0.485L0.154,-0.201C0.154,-0.155 0.164,-0.121 0.184,-0.098C0.204,-0.075 0.235,-0.064 0.277,-0.064C0.304,-0.064 0.328,-0.07 0.349,-0.082C0.371,-0.094 0.388,-0.11 0.401,-0.131C0.414,-0.152 0.42,-0.175 0.421,-0.201L0.421,-0.485C0.42,-0.496 0.424,-0.505 0.432,-0.513C0.439,-0.521 0.449,-0.525 0.461,-0.525Z" style="fill:rgb(33,37,41);fill-rule:nonzero;"/>
                        </g>
                        <g transform="matrix(9.81008,0,0,9.81008,157.459,57.54)">
                            <path d="M0.045,-0.082C0.039,-0.09 0.036,-0.099 0.037,-0.109C0.037,-0.119 0.043,-0.128 0.054,-0.135C0.061,-0.14 0.068,-0.142 0.077,-0.141C0.086,-0.14 0.094,-0.136 0.102,-0.128C0.12,-0.106 0.142,-0.089 0.166,-0.076C0.19,-0.063 0.219,-0.056 0.254,-0.056C0.27,-0.056 0.286,-0.059 0.302,-0.064C0.318,-0.069 0.332,-0.077 0.343,-0.088C0.354,-0.1 0.359,-0.115 0.359,-0.135C0.359,-0.153 0.353,-0.168 0.342,-0.179C0.331,-0.19 0.316,-0.2 0.298,-0.207C0.28,-0.214 0.26,-0.22 0.239,-0.225C0.217,-0.231 0.195,-0.238 0.174,-0.245C0.153,-0.253 0.134,-0.262 0.117,-0.274C0.099,-0.286 0.086,-0.3 0.076,-0.318C0.065,-0.336 0.06,-0.357 0.06,-0.383C0.06,-0.413 0.068,-0.439 0.085,-0.461C0.101,-0.483 0.123,-0.5 0.15,-0.512C0.178,-0.524 0.208,-0.53 0.241,-0.53C0.259,-0.53 0.279,-0.528 0.299,-0.523C0.319,-0.519 0.339,-0.511 0.359,-0.501C0.378,-0.491 0.395,-0.477 0.41,-0.459C0.416,-0.452 0.419,-0.444 0.42,-0.434C0.42,-0.424 0.416,-0.415 0.407,-0.407C0.4,-0.402 0.392,-0.399 0.383,-0.4C0.374,-0.4 0.366,-0.404 0.36,-0.41C0.346,-0.427 0.328,-0.44 0.307,-0.449C0.286,-0.458 0.263,-0.462 0.238,-0.462C0.222,-0.462 0.206,-0.46 0.191,-0.455C0.175,-0.45 0.162,-0.442 0.152,-0.431C0.142,-0.42 0.137,-0.405 0.137,-0.386C0.137,-0.368 0.143,-0.353 0.155,-0.342C0.166,-0.331 0.182,-0.321 0.201,-0.314C0.22,-0.307 0.242,-0.3 0.265,-0.294C0.286,-0.289 0.306,-0.282 0.326,-0.275C0.346,-0.268 0.364,-0.259 0.38,-0.248C0.396,-0.236 0.408,-0.222 0.418,-0.204C0.427,-0.187 0.432,-0.165 0.432,-0.138C0.432,-0.107 0.423,-0.08 0.406,-0.058C0.388,-0.036 0.365,-0.019 0.337,-0.008C0.309,0.004 0.279,0.01 0.246,0.01C0.209,0.01 0.173,0.003 0.137,-0.011C0.101,-0.025 0.071,-0.048 0.045,-0.082Z" style="fill:rgb(33,37,41);fill-rule:nonzero;"/>
                        </g>
                        <g transform="matrix(9.81008,0,0,9.81008,162.217,57.54)">
                            <path d="M0.054,-0.514L0.289,-0.514C0.299,-0.514 0.308,-0.51 0.315,-0.503C0.322,-0.496 0.326,-0.487 0.326,-0.477C0.326,-0.466 0.322,-0.458 0.315,-0.451C0.308,-0.444 0.299,-0.44 0.289,-0.44L0.054,-0.44C0.044,-0.44 0.035,-0.444 0.028,-0.451C0.02,-0.458 0.017,-0.467 0.017,-0.478C0.017,-0.488 0.02,-0.497 0.028,-0.504C0.035,-0.511 0.044,-0.514 0.054,-0.514ZM0.159,-0.65C0.17,-0.65 0.18,-0.646 0.187,-0.638C0.194,-0.63 0.198,-0.621 0.198,-0.61L0.198,-0.127C0.198,-0.111 0.2,-0.099 0.205,-0.091C0.21,-0.083 0.216,-0.077 0.223,-0.074C0.231,-0.071 0.238,-0.07 0.246,-0.07C0.252,-0.07 0.258,-0.071 0.263,-0.073C0.268,-0.075 0.274,-0.077 0.281,-0.077C0.288,-0.077 0.294,-0.073 0.299,-0.067C0.305,-0.061 0.308,-0.053 0.308,-0.043C0.308,-0.031 0.301,-0.02 0.287,-0.012C0.273,-0.004 0.257,-0 0.24,-0C0.231,-0 0.219,-0.001 0.206,-0.002C0.192,-0.003 0.178,-0.008 0.165,-0.015C0.152,-0.022 0.14,-0.034 0.132,-0.051C0.123,-0.068 0.118,-0.092 0.118,-0.123L0.118,-0.61C0.118,-0.621 0.122,-0.63 0.13,-0.638C0.138,-0.646 0.147,-0.65 0.159,-0.65Z" style="fill:rgb(33,37,41);fill-rule:nonzero;"/>
                        </g>
                        <g transform="matrix(9.81008,0,0,9.81008,165.464,57.54)">
                            <path d="M0.313,0.01C0.259,0.01 0.213,-0.001 0.173,-0.024C0.133,-0.046 0.101,-0.077 0.079,-0.117C0.057,-0.157 0.046,-0.203 0.046,-0.255C0.046,-0.313 0.057,-0.362 0.081,-0.403C0.103,-0.444 0.133,-0.475 0.17,-0.497C0.207,-0.519 0.246,-0.53 0.288,-0.53C0.319,-0.53 0.348,-0.524 0.377,-0.513C0.405,-0.501 0.431,-0.485 0.453,-0.463C0.475,-0.441 0.493,-0.415 0.506,-0.385C0.519,-0.355 0.526,-0.321 0.527,-0.284C0.527,-0.273 0.523,-0.264 0.515,-0.257C0.507,-0.25 0.497,-0.246 0.487,-0.246L0.092,-0.246L0.074,-0.315L0.459,-0.315L0.443,-0.301L0.443,-0.323C0.44,-0.35 0.431,-0.374 0.416,-0.394C0.4,-0.413 0.381,-0.428 0.358,-0.439C0.336,-0.45 0.312,-0.455 0.288,-0.455C0.268,-0.455 0.248,-0.451 0.228,-0.444C0.208,-0.437 0.191,-0.426 0.175,-0.41C0.159,-0.395 0.147,-0.375 0.137,-0.35C0.128,-0.325 0.123,-0.296 0.123,-0.261C0.123,-0.222 0.131,-0.188 0.147,-0.159C0.162,-0.129 0.184,-0.106 0.212,-0.089C0.24,-0.072 0.273,-0.064 0.31,-0.064C0.333,-0.064 0.354,-0.067 0.371,-0.073C0.388,-0.079 0.403,-0.086 0.416,-0.095C0.428,-0.104 0.439,-0.114 0.448,-0.123C0.456,-0.129 0.465,-0.132 0.473,-0.132C0.483,-0.132 0.491,-0.129 0.497,-0.122C0.504,-0.115 0.507,-0.107 0.507,-0.098C0.507,-0.087 0.502,-0.077 0.491,-0.068C0.472,-0.047 0.447,-0.029 0.415,-0.013C0.383,0.002 0.349,0.01 0.313,0.01Z" style="fill:rgb(33,37,41);fill-rule:nonzero;"/>
                        </g>
                        <g transform="matrix(9.81008,0,0,9.81008,171.114,57.54)">
                            <path d="M0.321,-0.525C0.366,-0.525 0.403,-0.514 0.431,-0.491C0.459,-0.468 0.478,-0.435 0.488,-0.393L0.473,-0.393L0.48,-0.411C0.488,-0.429 0.502,-0.447 0.521,-0.465C0.54,-0.482 0.562,-0.497 0.588,-0.508C0.613,-0.519 0.639,-0.525 0.667,-0.525C0.711,-0.525 0.745,-0.516 0.771,-0.497C0.796,-0.478 0.814,-0.452 0.825,-0.421C0.836,-0.389 0.842,-0.353 0.842,-0.314L0.842,-0.041C0.842,-0.029 0.838,-0.02 0.83,-0.012C0.823,-0.004 0.813,-0 0.802,-0C0.79,-0 0.78,-0.004 0.773,-0.012C0.765,-0.02 0.762,-0.029 0.762,-0.041L0.762,-0.312C0.762,-0.338 0.758,-0.361 0.75,-0.382C0.743,-0.403 0.73,-0.42 0.713,-0.432C0.696,-0.445 0.673,-0.451 0.644,-0.451C0.616,-0.451 0.592,-0.445 0.569,-0.432C0.546,-0.42 0.528,-0.403 0.515,-0.382C0.502,-0.361 0.495,-0.338 0.495,-0.312L0.495,-0.041C0.495,-0.029 0.491,-0.02 0.484,-0.012C0.476,-0.004 0.467,-0 0.455,-0C0.443,-0 0.434,-0.004 0.426,-0.012C0.419,-0.02 0.415,-0.029 0.415,-0.041L0.415,-0.315C0.415,-0.34 0.411,-0.363 0.404,-0.383C0.397,-0.404 0.385,-0.42 0.369,-0.433C0.352,-0.445 0.329,-0.451 0.3,-0.451C0.273,-0.451 0.249,-0.445 0.227,-0.433C0.205,-0.42 0.187,-0.404 0.174,-0.383C0.161,-0.363 0.154,-0.34 0.154,-0.315L0.154,-0.041C0.154,-0.029 0.15,-0.02 0.143,-0.012C0.135,-0.004 0.125,-0 0.114,-0C0.102,-0 0.093,-0.004 0.085,-0.012C0.078,-0.02 0.074,-0.029 0.074,-0.041L0.074,-0.477C0.074,-0.488 0.078,-0.497 0.086,-0.505C0.093,-0.513 0.103,-0.517 0.114,-0.517C0.126,-0.517 0.135,-0.513 0.143,-0.505C0.15,-0.497 0.154,-0.488 0.154,-0.477L0.154,-0.401L0.132,-0.377C0.135,-0.394 0.141,-0.411 0.153,-0.429C0.164,-0.446 0.178,-0.462 0.195,-0.477C0.212,-0.491 0.231,-0.503 0.253,-0.512C0.274,-0.521 0.297,-0.525 0.321,-0.525Z" style="fill:rgb(33,37,41);fill-rule:nonzero;"/>
                        </g>
                    </g>
                    <g transform="matrix(0.698246,0,0,1.08385,-30.1756,-191.918)">
                        <g transform="matrix(21.8002,0,0,21.8002,78.8701,57.54)">
                            <path d="M0.364,-0.7C0.399,-0.7 0.431,-0.69 0.462,-0.67C0.492,-0.65 0.516,-0.623 0.535,-0.589C0.554,-0.555 0.563,-0.517 0.563,-0.475C0.563,-0.434 0.554,-0.396 0.535,-0.362C0.516,-0.328 0.492,-0.301 0.462,-0.281C0.431,-0.26 0.399,-0.25 0.364,-0.25L0.18,-0.25L0.19,-0.268L0.19,-0.061C0.19,-0.044 0.185,-0.029 0.174,-0.018C0.163,-0.006 0.149,-0 0.132,-0C0.115,-0 0.102,-0.006 0.091,-0.018C0.08,-0.029 0.075,-0.044 0.075,-0.061L0.075,-0.639C0.075,-0.656 0.081,-0.671 0.093,-0.683C0.104,-0.694 0.119,-0.7 0.136,-0.7L0.364,-0.7ZM0.364,-0.364C0.377,-0.364 0.389,-0.369 0.401,-0.38C0.413,-0.391 0.423,-0.405 0.431,-0.422C0.439,-0.439 0.443,-0.456 0.443,-0.475C0.443,-0.494 0.439,-0.512 0.431,-0.529C0.423,-0.546 0.413,-0.559 0.401,-0.57C0.389,-0.58 0.377,-0.585 0.364,-0.585L0.178,-0.585L0.19,-0.603L0.19,-0.348L0.179,-0.364L0.364,-0.364Z" style="fill:rgb(33,37,41);fill-rule:nonzero;"/>
                        </g>
                        <g transform="matrix(21.8002,0,0,21.8002,92.9094,57.54)">
                            <path d="M0.195,-0.061C0.195,-0.044 0.189,-0.029 0.178,-0.018C0.166,-0.006 0.151,-0 0.134,-0C0.117,-0 0.103,-0.006 0.092,-0.018C0.081,-0.029 0.075,-0.044 0.075,-0.061L0.075,-0.679C0.075,-0.696 0.081,-0.711 0.093,-0.723C0.104,-0.734 0.119,-0.74 0.136,-0.74C0.153,-0.74 0.167,-0.734 0.179,-0.723C0.19,-0.711 0.195,-0.696 0.195,-0.679L0.195,-0.061Z" style="fill:rgb(33,37,41);fill-rule:nonzero;"/>
                        </g>
                        <g transform="matrix(21.8002,0,0,21.8002,98.7082,57.54)">
                            <path d="M0.503,-0.545C0.52,-0.545 0.535,-0.539 0.546,-0.528C0.557,-0.517 0.563,-0.502 0.563,-0.484L0.563,-0.061C0.563,-0.044 0.557,-0.029 0.546,-0.018C0.535,-0.006 0.52,-0 0.503,-0C0.486,-0 0.471,-0.006 0.46,-0.018C0.449,-0.029 0.443,-0.044 0.443,-0.061L0.443,-0.11L0.465,-0.101C0.465,-0.092 0.46,-0.082 0.451,-0.07C0.442,-0.057 0.429,-0.045 0.413,-0.033C0.397,-0.021 0.378,-0.011 0.357,-0.003C0.335,0.006 0.311,0.01 0.286,0.01C0.24,0.01 0.198,-0.002 0.161,-0.026C0.124,-0.049 0.094,-0.082 0.073,-0.124C0.051,-0.165 0.04,-0.213 0.04,-0.267C0.04,-0.322 0.051,-0.37 0.073,-0.412C0.094,-0.453 0.123,-0.486 0.16,-0.51C0.197,-0.533 0.237,-0.545 0.282,-0.545C0.311,-0.545 0.337,-0.541 0.361,-0.532C0.385,-0.523 0.406,-0.512 0.424,-0.499C0.441,-0.486 0.455,-0.472 0.465,-0.459C0.474,-0.445 0.479,-0.433 0.479,-0.424L0.443,-0.411L0.443,-0.484C0.443,-0.501 0.449,-0.516 0.46,-0.528C0.471,-0.539 0.486,-0.545 0.503,-0.545ZM0.301,-0.1C0.33,-0.1 0.356,-0.107 0.378,-0.122C0.4,-0.137 0.417,-0.157 0.43,-0.182C0.442,-0.207 0.448,-0.236 0.448,-0.267C0.448,-0.299 0.442,-0.328 0.43,-0.353C0.417,-0.378 0.4,-0.398 0.378,-0.413C0.356,-0.428 0.33,-0.435 0.301,-0.435C0.272,-0.435 0.247,-0.428 0.225,-0.413C0.203,-0.398 0.186,-0.378 0.174,-0.353C0.161,-0.328 0.155,-0.299 0.155,-0.267C0.155,-0.236 0.161,-0.207 0.174,-0.182C0.186,-0.157 0.203,-0.137 0.225,-0.122C0.247,-0.107 0.272,-0.1 0.301,-0.1Z" style="fill:rgb(33,37,41);fill-rule:nonzero;"/>
                        </g>
                        <g transform="matrix(21.8002,0,0,21.8002,112.857,57.54)">
                            <path d="M0.351,-0.545C0.4,-0.545 0.438,-0.535 0.464,-0.514C0.489,-0.493 0.507,-0.466 0.517,-0.432C0.526,-0.397 0.531,-0.359 0.531,-0.317L0.531,-0.061C0.531,-0.044 0.525,-0.029 0.514,-0.018C0.503,-0.006 0.488,-0 0.471,-0C0.454,-0 0.439,-0.006 0.428,-0.018C0.417,-0.029 0.411,-0.044 0.411,-0.061L0.411,-0.317C0.411,-0.339 0.408,-0.359 0.403,-0.377C0.397,-0.394 0.387,-0.408 0.372,-0.419C0.357,-0.43 0.336,-0.435 0.309,-0.435C0.282,-0.435 0.26,-0.43 0.242,-0.419C0.223,-0.408 0.209,-0.394 0.2,-0.377C0.19,-0.359 0.185,-0.339 0.185,-0.317L0.185,-0.061C0.185,-0.044 0.179,-0.029 0.168,-0.018C0.157,-0.006 0.142,-0 0.125,-0C0.108,-0 0.093,-0.006 0.082,-0.018C0.071,-0.029 0.065,-0.044 0.065,-0.061L0.065,-0.474C0.065,-0.491 0.071,-0.506 0.082,-0.518C0.093,-0.529 0.108,-0.535 0.125,-0.535C0.142,-0.535 0.157,-0.529 0.168,-0.518C0.179,-0.506 0.185,-0.491 0.185,-0.474L0.185,-0.431L0.17,-0.434C0.176,-0.445 0.185,-0.458 0.196,-0.471C0.207,-0.484 0.221,-0.496 0.236,-0.507C0.251,-0.518 0.269,-0.528 0.288,-0.535C0.307,-0.542 0.328,-0.545 0.351,-0.545Z" style="fill:rgb(33,37,41);fill-rule:nonzero;"/>
                        </g>
                        <g transform="matrix(21.8002,0,0,21.8002,126.416,57.54)">
                            <path d="M0.071,-0.525L0.308,-0.525C0.324,-0.525 0.337,-0.52 0.348,-0.509C0.359,-0.498 0.364,-0.485 0.364,-0.469C0.364,-0.454 0.359,-0.441 0.348,-0.431C0.337,-0.42 0.324,-0.415 0.308,-0.415L0.071,-0.415C0.055,-0.415 0.042,-0.42 0.031,-0.431C0.02,-0.442 0.015,-0.455 0.015,-0.471C0.015,-0.486 0.02,-0.499 0.031,-0.51C0.042,-0.52 0.055,-0.525 0.071,-0.525ZM0.178,-0.65C0.195,-0.65 0.21,-0.644 0.221,-0.633C0.232,-0.621 0.237,-0.606 0.237,-0.589L0.237,-0.144C0.237,-0.135 0.239,-0.127 0.243,-0.121C0.246,-0.115 0.251,-0.111 0.258,-0.108C0.264,-0.105 0.271,-0.104 0.278,-0.104C0.286,-0.104 0.293,-0.106 0.3,-0.109C0.307,-0.112 0.314,-0.113 0.323,-0.113C0.332,-0.113 0.341,-0.109 0.349,-0.1C0.356,-0.091 0.36,-0.079 0.36,-0.064C0.36,-0.045 0.35,-0.03 0.33,-0.018C0.309,-0.006 0.287,-0 0.264,-0C0.25,-0 0.235,-0.001 0.218,-0.004C0.201,-0.006 0.185,-0.012 0.17,-0.021C0.155,-0.03 0.142,-0.043 0.132,-0.062C0.122,-0.081 0.117,-0.106 0.117,-0.139L0.117,-0.589C0.117,-0.606 0.123,-0.621 0.135,-0.633C0.146,-0.644 0.161,-0.65 0.178,-0.65Z" style="fill:rgb(33,37,41);fill-rule:nonzero;"/>
                        </g>
                        <g transform="matrix(21.8002,0,0,21.8002,134.395,57.54)">
                            <path d="M0.503,-0.545C0.52,-0.545 0.535,-0.539 0.546,-0.528C0.557,-0.517 0.563,-0.502 0.563,-0.484L0.563,-0.061C0.563,-0.044 0.557,-0.029 0.546,-0.018C0.535,-0.006 0.52,-0 0.503,-0C0.486,-0 0.471,-0.006 0.46,-0.018C0.449,-0.029 0.443,-0.044 0.443,-0.061L0.443,-0.11L0.465,-0.101C0.465,-0.092 0.46,-0.082 0.451,-0.07C0.442,-0.057 0.429,-0.045 0.413,-0.033C0.397,-0.021 0.378,-0.011 0.357,-0.003C0.335,0.006 0.311,0.01 0.286,0.01C0.24,0.01 0.198,-0.002 0.161,-0.026C0.124,-0.049 0.094,-0.082 0.073,-0.124C0.051,-0.165 0.04,-0.213 0.04,-0.267C0.04,-0.322 0.051,-0.37 0.073,-0.412C0.094,-0.453 0.123,-0.486 0.16,-0.51C0.197,-0.533 0.237,-0.545 0.282,-0.545C0.311,-0.545 0.337,-0.541 0.361,-0.532C0.385,-0.523 0.406,-0.512 0.424,-0.499C0.441,-0.486 0.455,-0.472 0.465,-0.459C0.474,-0.445 0.479,-0.433 0.479,-0.424L0.443,-0.411L0.443,-0.484C0.443,-0.501 0.449,-0.516 0.46,-0.528C0.471,-0.539 0.486,-0.545 0.503,-0.545ZM0.301,-0.1C0.33,-0.1 0.356,-0.107 0.378,-0.122C0.4,-0.137 0.417,-0.157 0.43,-0.182C0.442,-0.207 0.448,-0.236 0.448,-0.267C0.448,-0.299 0.442,-0.328 0.43,-0.353C0.417,-0.378 0.4,-0.398 0.378,-0.413C0.356,-0.428 0.33,-0.435 0.301,-0.435C0.272,-0.435 0.247,-0.428 0.225,-0.413C0.203,-0.398 0.186,-0.378 0.174,-0.353C0.161,-0.328 0.155,-0.299 0.155,-0.267C0.155,-0.236 0.161,-0.207 0.174,-0.182C0.186,-0.157 0.203,-0.137 0.225,-0.122C0.247,-0.107 0.272,-0.1 0.301,-0.1Z" style="fill:rgb(33,37,41);fill-rule:nonzero;"/>
                        </g>
                        <g transform="matrix(21.8002,0,0,21.8002,148.543,57.54)">
                            <path d="M0.034,-0.083C0.027,-0.092 0.024,-0.104 0.025,-0.119C0.026,-0.134 0.034,-0.146 0.051,-0.157C0.062,-0.164 0.073,-0.167 0.085,-0.166C0.097,-0.165 0.109,-0.158 0.12,-0.147C0.139,-0.128 0.16,-0.113 0.181,-0.102C0.202,-0.091 0.229,-0.086 0.261,-0.086C0.271,-0.087 0.282,-0.088 0.294,-0.091C0.306,-0.093 0.317,-0.098 0.326,-0.107C0.335,-0.115 0.339,-0.128 0.339,-0.145C0.339,-0.16 0.334,-0.171 0.324,-0.18C0.314,-0.189 0.301,-0.196 0.285,-0.202C0.268,-0.208 0.25,-0.214 0.23,-0.219C0.209,-0.225 0.188,-0.232 0.167,-0.239C0.145,-0.246 0.125,-0.256 0.107,-0.268C0.089,-0.279 0.074,-0.295 0.063,-0.314C0.052,-0.333 0.046,-0.358 0.046,-0.387C0.046,-0.42 0.055,-0.449 0.074,-0.472C0.093,-0.495 0.117,-0.513 0.147,-0.526C0.176,-0.539 0.207,-0.545 0.24,-0.545C0.261,-0.545 0.282,-0.543 0.305,-0.538C0.328,-0.533 0.349,-0.525 0.37,-0.514C0.391,-0.502 0.408,-0.488 0.422,-0.47C0.429,-0.46 0.434,-0.448 0.435,-0.434C0.436,-0.42 0.43,-0.407 0.416,-0.396C0.406,-0.388 0.394,-0.385 0.381,-0.386C0.368,-0.387 0.357,-0.391 0.348,-0.399C0.337,-0.414 0.322,-0.425 0.303,-0.434C0.284,-0.443 0.262,-0.447 0.237,-0.447C0.227,-0.447 0.216,-0.446 0.205,-0.444C0.193,-0.441 0.183,-0.436 0.174,-0.429C0.165,-0.421 0.161,-0.409 0.161,-0.392C0.161,-0.377 0.166,-0.365 0.176,-0.356C0.186,-0.347 0.2,-0.339 0.217,-0.334C0.234,-0.328 0.252,-0.322 0.271,-0.317C0.291,-0.312 0.311,-0.305 0.332,-0.298C0.353,-0.291 0.372,-0.281 0.389,-0.269C0.406,-0.257 0.42,-0.242 0.431,-0.223C0.442,-0.204 0.447,-0.179 0.447,-0.15C0.447,-0.116 0.437,-0.087 0.417,-0.063C0.397,-0.039 0.372,-0.021 0.342,-0.009C0.312,0.004 0.281,0.01 0.25,0.01C0.211,0.01 0.171,0.003 0.132,-0.011C0.093,-0.024 0.06,-0.048 0.034,-0.083Z" style="fill:rgb(33,37,41);fill-rule:nonzero;"/>
                        </g>
                        <g transform="matrix(21.8002,0,0,21.8002,159.771,57.54)">
                            <path d="M0.071,-0.525L0.308,-0.525C0.324,-0.525 0.337,-0.52 0.348,-0.509C0.359,-0.498 0.364,-0.485 0.364,-0.469C0.364,-0.454 0.359,-0.441 0.348,-0.431C0.337,-0.42 0.324,-0.415 0.308,-0.415L0.071,-0.415C0.055,-0.415 0.042,-0.42 0.031,-0.431C0.02,-0.442 0.015,-0.455 0.015,-0.471C0.015,-0.486 0.02,-0.499 0.031,-0.51C0.042,-0.52 0.055,-0.525 0.071,-0.525ZM0.178,-0.65C0.195,-0.65 0.21,-0.644 0.221,-0.633C0.232,-0.621 0.237,-0.606 0.237,-0.589L0.237,-0.144C0.237,-0.135 0.239,-0.127 0.243,-0.121C0.246,-0.115 0.251,-0.111 0.258,-0.108C0.264,-0.105 0.271,-0.104 0.278,-0.104C0.286,-0.104 0.293,-0.106 0.3,-0.109C0.307,-0.112 0.314,-0.113 0.323,-0.113C0.332,-0.113 0.341,-0.109 0.349,-0.1C0.356,-0.091 0.36,-0.079 0.36,-0.064C0.36,-0.045 0.35,-0.03 0.33,-0.018C0.309,-0.006 0.287,-0 0.264,-0C0.25,-0 0.235,-0.001 0.218,-0.004C0.201,-0.006 0.185,-0.012 0.17,-0.021C0.155,-0.03 0.142,-0.043 0.132,-0.062C0.122,-0.081 0.117,-0.106 0.117,-0.139L0.117,-0.589C0.117,-0.606 0.123,-0.621 0.135,-0.633C0.146,-0.644 0.161,-0.65 0.178,-0.65Z" style="fill:rgb(33,37,41);fill-rule:nonzero;"/>
                        </g>
                        <g transform="matrix(21.8002,0,0,21.8002,167.749,57.54)">
                            <path d="M0.178,-0.061C0.178,-0.044 0.172,-0.029 0.161,-0.018C0.15,-0.006 0.135,-0 0.118,-0C0.101,-0 0.086,-0.006 0.075,-0.018C0.064,-0.029 0.058,-0.044 0.058,-0.061L0.058,-0.474C0.058,-0.491 0.064,-0.506 0.075,-0.518C0.086,-0.529 0.101,-0.535 0.118,-0.535C0.135,-0.535 0.15,-0.529 0.161,-0.518C0.172,-0.506 0.178,-0.491 0.178,-0.474L0.178,-0.061ZM0.117,-0.6C0.094,-0.6 0.078,-0.604 0.069,-0.611C0.06,-0.618 0.055,-0.631 0.055,-0.65L0.055,-0.669C0.055,-0.688 0.06,-0.702 0.071,-0.709C0.081,-0.716 0.097,-0.719 0.118,-0.719C0.141,-0.719 0.158,-0.715 0.167,-0.708C0.176,-0.701 0.181,-0.688 0.181,-0.669L0.181,-0.65C0.181,-0.631 0.176,-0.618 0.166,-0.611C0.156,-0.604 0.14,-0.6 0.117,-0.6Z" style="fill:rgb(33,37,41);fill-rule:nonzero;"/>
                        </g>
                        <g transform="matrix(21.8002,0,0,21.8002,173.33,57.54)">
                            <path d="M0.303,-0.545C0.341,-0.545 0.374,-0.541 0.403,-0.533C0.431,-0.525 0.453,-0.514 0.469,-0.5C0.484,-0.485 0.492,-0.468 0.492,-0.448C0.492,-0.435 0.488,-0.422 0.48,-0.411C0.472,-0.399 0.46,-0.393 0.445,-0.393C0.434,-0.393 0.426,-0.395 0.419,-0.398C0.412,-0.401 0.405,-0.404 0.4,-0.409C0.395,-0.414 0.388,-0.418 0.381,-0.422C0.374,-0.426 0.364,-0.429 0.351,-0.432C0.337,-0.434 0.327,-0.435 0.32,-0.435C0.286,-0.435 0.257,-0.428 0.234,-0.413C0.21,-0.398 0.192,-0.379 0.179,-0.354C0.166,-0.329 0.16,-0.3 0.16,-0.267C0.16,-0.235 0.167,-0.206 0.18,-0.182C0.193,-0.157 0.211,-0.137 0.234,-0.122C0.257,-0.107 0.283,-0.1 0.313,-0.1C0.33,-0.1 0.344,-0.101 0.356,-0.103C0.368,-0.105 0.378,-0.108 0.386,-0.112C0.395,-0.117 0.404,-0.123 0.411,-0.129C0.418,-0.135 0.429,-0.138 0.444,-0.138C0.461,-0.138 0.475,-0.133 0.484,-0.122C0.493,-0.111 0.498,-0.097 0.498,-0.081C0.498,-0.064 0.489,-0.049 0.47,-0.036C0.451,-0.022 0.427,-0.011 0.397,-0.003C0.366,0.006 0.333,0.01 0.298,0.01C0.245,0.01 0.2,-0.002 0.161,-0.027C0.122,-0.051 0.093,-0.084 0.072,-0.126C0.051,-0.168 0.04,-0.215 0.04,-0.267C0.04,-0.322 0.051,-0.37 0.074,-0.412C0.096,-0.453 0.127,-0.486 0.167,-0.51C0.206,-0.533 0.252,-0.545 0.303,-0.545Z" style="fill:rgb(33,37,41);fill-rule:nonzero;"/>
                        </g>
                    </g>
                </g>
                <g id="plant-3-.svg" serif:id="plant(3).svg" transform="matrix(0.345141,0,0,0.534698,8.49472,-132.045)">
                    <g transform="matrix(1,0,0,1,-34,-34)">
                        <path d="M51.411,22.289C49.405,28.461 44.652,33.739 37.628,36.659L37.615,36.664C33.651,30.172 32.901,23.104 34.908,16.933C36.732,11.321 40.838,6.443 46.849,3.409C47.892,2.882 49.178,3.312 49.712,4.351C52.79,10.336 53.234,16.681 51.411,22.289Z" style="fill:rgb(159,207,159);fill-rule:nonzero;"/>
                        <path d="M41.032,16.93C39.282,22.3 39.622,28.35 42.362,34.11C40.932,35.09 39.352,35.95 37.632,36.66L37.612,36.66C33.652,30.17 32.902,23.1 34.912,16.93C36.731,11.317 40.843,6.441 46.855,3.408C47.911,2.875 49.193,3.329 49.729,4.383C49.851,4.625 49.969,4.867 50.082,5.11C45.632,8.12 42.552,12.27 41.032,16.93Z" style="fill:rgb(140,198,140);fill-rule:nonzero;"/>
                        <path d="M54.53,27.278C51.301,32.236 45.866,35.756 38.991,36.662L38.978,36.664C37.027,30.01 38.041,23.61 41.27,18.652C44.173,14.194 48.87,10.896 54.786,9.618C55.935,9.37 57.085,10.118 57.324,11.269C58.552,17.199 57.433,22.819 54.53,27.278Z" style="fill:rgb(159,207,159);fill-rule:nonzero;"/>
                        <path d="M57.612,13.01C52.522,14.52 48.462,17.58 45.852,21.59C43.242,25.61 42.072,30.58 42.772,35.86C41.572,36.22 40.312,36.49 38.992,36.66L38.982,36.66C37.022,30.01 38.042,23.61 41.272,18.65C44.176,14.19 48.867,10.895 54.785,9.621C55.936,9.373 57.086,10.125 57.322,11.278C57.441,11.859 57.538,12.437 57.612,13.01Z" style="fill:rgb(140,198,140);fill-rule:nonzero;"/>
                        <path d="M16.588,22.289C18.595,28.461 23.348,33.739 30.372,36.659L30.384,36.664C34.348,30.172 35.099,23.104 33.092,16.933C31.268,11.321 27.161,6.443 21.151,3.409C20.108,2.882 18.822,3.312 18.287,4.351C15.21,10.336 14.765,16.681 16.588,22.289Z" style="fill:rgb(159,207,159);fill-rule:nonzero;"/>
                        <path d="M31.532,34.58C31.192,35.28 30.802,35.97 30.382,36.66L30.372,36.66C23.352,33.74 18.592,28.46 16.592,22.29C14.766,16.683 15.21,10.333 18.285,4.351C18.817,3.316 20.096,2.881 21.136,3.404C21.897,3.787 22.627,4.201 23.322,4.65C20.362,10.54 19.962,16.78 21.762,22.29C23.362,27.2 26.692,31.55 31.532,34.58Z" style="fill:rgb(140,198,140);fill-rule:nonzero;"/>
                        <path d="M13.47,27.278C21.448,39.528 17.385,35.131 29.009,36.662L29.021,36.664C30.973,30.01 29.959,23.61 26.73,18.652C23.827,14.194 19.129,10.896 13.214,9.618C12.064,9.37 10.915,10.118 10.676,11.269C9.447,17.199 10.566,22.819 13.47,27.278Z" style="fill:rgb(159,207,159);fill-rule:nonzero;"/>
                        <path d="M29.122,36.27C29.092,36.4 29.062,36.53 29.022,36.66L29.012,36.66C17.382,35.13 21.452,39.53 13.472,27.28C10.567,22.819 9.45,17.194 10.68,11.27C10.918,10.124 12.058,9.373 13.202,9.619C14.428,9.883 15.603,10.234 16.722,10.67C15.282,16.81 16.382,22.67 19.382,27.28C25.552,36.76 24.512,36.27 29.122,36.27Z" style="fill:rgb(140,198,140);fill-rule:nonzero;"/>
                        <path d="M42.939,19.163C42.939,25.495 40.12,31.827 34.484,36.655L34.473,36.664C28.837,31.836 26.008,25.504 26.008,19.171C26.008,13.434 28.33,7.689 32.959,3.069C33.792,2.239 35.156,2.238 35.989,3.068C40.624,7.687 42.939,13.425 42.939,19.163Z" style="fill:rgb(159,207,159);fill-rule:nonzero;"/>
                        <path d="M32.502,19.17C32.502,24.13 34.242,29.11 37.722,33.34C36.782,34.51 35.702,35.62 34.482,36.66L34.472,36.66C28.832,31.84 26.012,25.5 26.012,19.17C26.012,13.433 28.328,7.688 32.96,3.067C33.787,2.242 35.145,2.228 35.972,3.053C36.599,3.678 37.181,4.324 37.722,4.99C34.242,9.23 32.502,14.21 32.502,19.17Z" style="fill:rgb(140,198,140);fill-rule:nonzero;"/>
                        <path d="M52.257,40.104L48.916,61.727C48.576,63.93 46.681,65.555 44.452,65.555L23.579,65.555C21.351,65.555 19.455,63.93 19.115,61.727L15.775,40.104L52.257,40.104ZM56.484,35.637C56.484,38.104 54.485,40.104 52.018,40.104L15.982,40.104C13.515,40.104 11.515,38.104 11.515,35.637C11.515,33.17 13.515,31.17 15.982,31.17L52.018,31.17C54.484,31.17 56.484,33.17 56.484,35.637Z" style="fill:rgb(237,203,171);fill-rule:nonzero;"/>
                        <path d="M35.082,65.55L23.582,65.55C21.352,65.55 19.452,63.93 19.112,61.73L15.772,40.1L27.272,40.1L30.622,61.73C30.962,63.93 32.852,65.55 35.082,65.55Z" style="fill:rgb(234,191,151);fill-rule:nonzero;"/>
                        <path d="M27.482,40.1L15.982,40.1C13.512,40.1 11.512,38.1 11.512,35.64C11.512,34.4 12.012,33.29 12.822,32.48C13.632,31.67 14.752,31.17 15.982,31.17L27.482,31.17C26.252,31.17 25.132,31.67 24.332,32.48C23.522,33.29 23.022,34.4 23.022,35.64C23.022,38.1 25.022,40.1 27.482,40.1Z" style="fill:rgb(234,191,151);fill-rule:nonzero;"/>
                        <path d="M53.388,30.351C54.101,29.558 54.778,28.73 55.368,27.824C58.503,23.009 59.545,17.058 58.303,11.066C57.951,9.37 56.271,8.276 54.574,8.64C53.912,8.783 53.264,8.956 52.627,9.15C52.15,7.367 51.481,5.605 50.601,3.894C49.814,2.362 47.927,1.745 46.398,2.516C44.098,3.677 42.054,5.136 40.273,6.81C39.271,5.232 38.077,3.737 36.695,2.36C35.469,1.139 33.478,1.142 32.253,2.361C30.706,3.905 29.395,5.595 28.325,7.385C26.412,5.465 24.162,3.809 21.601,2.516C20.072,1.745 18.186,2.362 17.398,3.894C16.519,5.604 15.861,7.367 15.387,9.149C14.745,8.954 14.091,8.784 13.425,8.64C11.717,8.279 10.047,9.376 9.697,11.066C8.455,17.059 9.498,23.01 12.632,27.824C13.264,28.795 13.82,29.66 14.315,30.433C12.114,31.14 10.516,33.204 10.516,35.637C10.516,38.282 12.403,40.492 14.901,40.996L18.127,61.88C18.545,64.589 20.838,66.554 23.579,66.554L44.452,66.554C47.193,66.554 49.486,64.589 49.905,61.88L53.132,40.99C55.614,40.474 57.485,38.27 57.485,35.637C57.485,33.097 55.74,30.962 53.388,30.351ZM54.997,10.595C55.62,10.462 56.221,10.879 56.345,11.472C57.478,16.944 56.536,22.364 53.692,26.732C52.863,28.006 51.882,29.147 50.79,30.171L41.067,30.171C42.936,26.774 43.939,23.039 43.939,19.163C43.939,18.436 43.9,17.712 43.83,16.993C46.649,13.813 50.512,11.565 54.997,10.595ZM47.3,4.301C47.847,4.024 48.534,4.246 48.823,4.808C49.663,6.441 50.28,8.124 50.719,9.823C47.962,10.925 45.497,12.506 43.443,14.497C43.009,12.462 42.288,10.486 41.308,8.607C43.025,6.919 45.022,5.452 47.3,4.301ZM33.665,3.777C34.112,3.332 34.836,3.332 35.283,3.776C39.575,8.052 41.939,13.516 41.939,19.163C41.939,23.061 40.827,26.811 38.755,30.171L30.192,30.171C28.121,26.813 27.008,23.065 27.008,19.172C27.008,13.529 29.372,8.062 33.665,3.777ZM19.177,4.809C19.465,4.25 20.148,4.022 20.7,4.301C23.258,5.593 25.476,7.273 27.324,9.23C26.382,11.171 25.722,13.211 25.354,15.303C23.149,12.927 20.404,11.053 17.273,9.809C17.714,8.114 18.339,6.437 19.177,4.809ZM11.655,11.472C11.781,10.867 12.389,10.466 13.002,10.595C17.969,11.668 22.174,14.307 25.037,18.05C25.018,18.423 25.008,18.797 25.008,19.171C25.008,23.042 26.012,26.774 27.881,30.17L16.521,30.17C16.501,30.139 16.484,30.112 16.463,30.08C15.857,29.13 15.149,28.024 14.308,26.732C11.464,22.364 10.521,16.945 11.655,11.472ZM47.928,61.575C47.661,63.301 46.199,64.554 44.452,64.554L23.579,64.554C21.832,64.554 20.37,63.301 20.103,61.575L16.941,41.104L51.09,41.104L47.928,61.575ZM52.018,39.104L15.982,39.104C14.071,39.104 12.515,37.548 12.515,35.637C12.515,33.726 14.07,32.171 15.982,32.171L52.018,32.171C53.929,32.171 55.485,33.726 55.485,35.637C55.485,37.548 53.929,39.104 52.018,39.104Z" style="fill:rgb(33,37,41);fill-rule:nonzero;"/>
                    </g>
                </g>
            </g>
        </g>
    </g>
</svg>
