<?xml version="1.0" encoding="UTF-8" standalone="no"?>
<!DOCTYPE svg PUBLIC "-//W3C//DTD SVG 1.1//EN" "http://www.w3.org/Graphics/SVG/1.1/DTD/svg11.dtd">
<svg width="100%" height="100%" viewBox="0 0 340 340" version="1.1" xmlns="http://www.w3.org/2000/svg" xmlns:xlink="http://www.w3.org/1999/xlink" xml:space="preserve" xmlns:serif="http://www.serif.com/" style="fill-rule:evenodd;clip-rule:evenodd;stroke-linejoin:round;stroke-miterlimit:2;">
    <path d="M204.3,179.526C204.3,179.526 224.88,157.826 260.826,160.921C261.735,160.995 262.443,161.764 262.443,162.675C262.443,162.874 262.409,163.072 262.343,163.26C259.507,171.27 248.132,199.436 227.376,202.773C203.144,206.673 191.599,199.237 191.599,199.237L204.3,179.526Z" style="fill:rgb(77,145,129);fill-rule:nonzero;"/>
    <path d="M210.512,127.919C210.512,127.919 236.842,114.103 252.443,102.073C252.749,101.837 253.124,101.709 253.51,101.709C254.468,101.709 255.257,102.498 255.257,103.456C255.257,103.508 255.255,103.56 255.25,103.612C254.015,117.505 247.318,163.612 212.3,179.483L192.7,148.483L210.512,127.919Z" style="fill:rgb(77,145,129);fill-rule:nonzero;"/>
    <path d="M226.084,25.87C222.406,42.791 210.125,90.328 183.359,118.333L161.159,188.433L202.53,158.023C202.53,158.023 254.808,102.523 229.464,25.698C229.226,24.982 228.552,24.496 227.798,24.496C226.978,24.496 226.262,25.07 226.084,25.87Z" style="fill:rgb(77,145,129);fill-rule:nonzero;"/>
    <path d="M191.164,156.469C191.177,156.443 191.189,156.417 191.203,156.391C192.23,153.49 193.504,150.683 195.011,148C195.083,147.871 195.148,147.739 195.219,147.61C204.861,123.61 203.709,100.605 203.019,93.337C202.93,92.514 202.84,91.717 202.748,90.973C197.513,100.902 190.995,110.1 183.361,118.329L161.161,188.429L188.189,168.562C188.787,164.443 189.786,160.393 191.173,156.469L191.164,156.469Z" style="fill:rgb(77,145,129);fill-rule:nonzero;"/>
    <path d="M160.988,182.56C170.24,172.798 181.38,165.018 193.73,159.694C203.779,155.583 213.014,149.712 221,142.357C221.325,142.049 221.756,141.877 222.203,141.877C223.155,141.877 223.941,142.655 223.951,143.607C224.101,154.867 221.986,186.577 194.751,200.768L159.251,196.25L160.988,182.56Z" style="fill:rgb(77,145,129);fill-rule:nonzero;"/>
    <path d="M144.795,22.552C149.96,32.612 165.721,68.325 159.883,119.991L149.121,158.179L124.821,127.979C124.821,127.979 127.091,52.41 141.663,22.591C141.956,21.989 142.569,21.606 143.239,21.606C143.893,21.606 144.494,21.972 144.795,22.552ZM109.545,198.8C109.545,198.8 76.345,191.383 76.954,143.651C76.958,142.692 77.748,141.906 78.707,141.906C78.84,141.906 78.973,141.921 79.103,141.951C87.485,143.951 119.072,154.26 139.403,198.802L109.545,198.8Z" style="fill:rgb(77,145,129);fill-rule:nonzero;"/>
    <path d="M120.307,198.8C120.307,198.8 118.621,193.485 118.34,183.012C117.838,166.461 113.504,150.25 105.681,135.656C95.081,115.716 84.421,82.32 95.713,38.272C95.909,37.494 96.614,36.944 97.416,36.944C97.998,36.944 98.544,37.234 98.87,37.716C107.67,50.861 140.883,105.285 154.675,196.405L154.675,198.8L120.307,198.8Z" style="fill:rgb(77,145,129);fill-rule:nonzero;"/>
    <path d="M120.307,198.8L154.675,198.8L154.675,196.4C150.879,170.99 145.054,145.924 137.256,121.444L136.892,121.79L137,130.654C137.143,139.807 134.763,148.824 130.12,156.713L130.026,156.871C128.93,158.754 127.584,160.48 126.026,162.002C124.141,163.802 120.591,165.266 116.542,166.44C117.585,171.905 118.187,177.445 118.342,183.007C118.621,193.481 120.307,198.8 120.307,198.8ZM164.414,196.908L189.472,200.097L194.746,200.768C200.375,197.856 205.385,193.876 209.494,189.05C190.458,188.441 188.133,175.911 188.483,168.323C188.5,166.656 188.713,164.998 189.118,163.381C189.224,162.896 189.302,162.614 189.302,162.614L188.672,162.014C185.786,163.447 182.976,165.028 180.253,166.752L180.243,166.752C180.03,166.887 179.83,167.024 179.619,167.159C179.29,167.371 178.964,167.583 178.643,167.795C178.321,168.008 177.999,168.221 177.685,168.434C177.235,168.738 176.793,169.042 176.359,169.347C176.068,169.547 175.783,169.753 175.5,169.956C175.2,170.172 174.9,170.387 174.606,170.603C174.206,170.896 173.813,171.187 173.427,171.478C173.158,171.678 172.891,171.878 172.627,172.078C172.363,172.278 172.114,172.472 171.864,172.668C171.471,172.975 171.087,173.279 170.713,173.58C170.473,173.774 170.242,173.963 170.013,174.154C169.784,174.345 169.565,174.523 169.346,174.705C169.046,174.954 168.755,175.205 168.47,175.442C168.216,175.658 167.97,175.873 167.724,176.083C167.524,176.255 167.333,176.423 167.142,176.591C166.91,176.791 166.686,176.991 166.466,177.191C166.227,177.406 165.996,177.614 165.772,177.82C165.585,177.991 165.403,178.157 165.226,178.32C165.08,178.456 164.934,178.591 164.795,178.72C164.538,178.961 164.294,179.195 164.063,179.42L163.707,179.764C163.543,179.924 163.386,180.077 163.236,180.225L162.888,180.57L162.431,181.031L162.209,181.258C162.05,181.421 161.904,181.573 161.775,181.708L161.65,181.84L161.383,182.123L161.295,182.218L161.095,182.44L161.047,182.493L160.993,182.553L159.941,190.821L164.414,196.908Z" style="fill:rgb(77,145,129);fill-rule:nonzero;"/>
    <path d="M142.872,198.8C142.872,198.8 127.234,153.188 157.187,115.935C161.259,110.959 165.042,105.754 168.518,100.346C173.234,92.869 178.641,83.027 180.918,74.202C181.12,73.438 181.817,72.903 182.607,72.903C183.238,72.903 183.822,73.245 184.131,73.796C189.641,83.664 201.407,111.982 181.864,149.201C177.86,156.711 175.265,164.892 174.208,173.338C173.217,181.705 173.697,191.314 178.634,198.8L142.872,198.8Z" style="fill:rgb(77,145,129);fill-rule:nonzero;"/>
    <path d="M248.182,215.641L91.819,215.641L93.078,223.428L108.167,330L231.833,330L246.922,223.428L248.182,215.641Z" style="fill:rgb(153,153,153);fill-rule:nonzero;"/>
    <path d="M78.051,196.4L80.561,212.168C81.596,218.668 86.885,223.427 93.078,223.427L246.922,223.427C253.115,223.427 258.404,218.67 259.439,212.168L261.949,196.4L78.051,196.4Z" style="fill:rgb(153,153,153);fill-rule:nonzero;"/>
    <path d="M235.312,196.4L230.863,213.336C230.687,214.119 230.453,214.888 230.163,215.636C230.097,215.81 230.025,215.992 229.948,216.177C229.934,216.211 229.919,216.245 229.905,216.277C229.841,216.428 229.773,216.583 229.705,216.739C229.686,216.782 229.667,216.825 229.646,216.868C229.558,217.06 229.464,217.254 229.364,217.451L229.346,217.484C229.253,217.665 229.155,217.847 229.052,218.029L228.959,218.191C228.868,218.348 228.773,218.505 228.674,218.662L228.594,218.791C228.469,218.985 228.338,219.177 228.201,219.368L228.107,219.494C227.996,219.645 227.88,219.794 227.761,219.941L227.625,220.106C227.486,220.272 227.341,220.435 227.191,220.595L227.139,220.652C226.972,220.826 226.797,220.993 226.616,221.152C226.564,221.199 226.511,221.244 226.458,221.29C226.316,221.414 226.169,221.534 226.018,221.65C225.964,221.691 225.911,221.734 225.855,221.774C225.655,221.922 225.448,222.063 225.233,222.194C225.198,222.215 225.161,222.234 225.126,222.255C224.941,222.364 224.75,222.466 224.554,222.563C224.484,222.597 224.414,222.63 224.343,222.663C224.15,222.751 223.952,222.832 223.749,222.906C223.698,222.924 223.649,222.946 223.597,222.963C223.345,223.049 223.085,223.123 222.817,223.186C222.75,223.202 222.679,223.213 222.611,223.228C222.397,223.272 222.178,223.309 221.954,223.337C221.872,223.348 221.79,223.359 221.706,223.367C221.411,223.396 221.111,223.416 220.799,223.416L149.3,223.416C149.298,223.416 149.297,223.416 149.295,223.416C147.643,223.416 146.283,224.776 146.283,226.428C146.283,227.896 147.357,229.161 148.806,229.4L193.485,236.829C207.085,239.09 216.488,252.032 214.436,265.665L204.758,330L231.833,330L246.922,223.428C253.115,223.428 258.404,218.671 259.438,212.169L261.948,196.401L235.312,196.4Z" style="fill:rgb(153,153,153);fill-rule:nonzero;"/>
    <path d="M142.872,198.8L178.629,198.8C176.267,195.085 174.759,190.893 174.213,186.525C147.454,187.676 138.913,165.425 138.913,165.425C138.31,176.695 139.649,187.984 142.872,198.8Z" style="fill:rgb(77,145,129);fill-rule:nonzero;"/>
    <path d="M201.985,92.461C203.926,93.481 206.363,92.724 207.385,90.784C218.097,70.419 224.595,48.884 228.055,35.052C235.26,62.479 233.272,91.526 222.398,117.716C222.37,117.786 222.36,117.859 222.335,117.929C222.284,118.071 222.241,118.216 222.206,118.363C222.18,118.482 222.164,118.599 222.148,118.718C222.131,118.855 222.116,118.99 222.112,119.128C222.108,119.266 222.112,119.374 222.124,119.498C222.136,119.622 222.145,119.764 222.167,119.898C222.189,120.032 222.219,120.144 222.252,120.265C222.285,120.386 222.322,120.516 222.369,120.641C222.42,120.77 222.477,120.896 222.541,121.019C222.579,121.093 222.601,121.171 222.641,121.244C222.662,121.279 222.69,121.306 222.712,121.344C222.789,121.465 222.873,121.581 222.964,121.692C223.04,121.792 223.112,121.886 223.194,121.974C223.276,122.062 223.383,122.151 223.482,122.237C223.58,122.327 223.683,122.412 223.79,122.491C223.885,122.559 223.99,122.615 224.09,122.675C224.216,122.751 224.346,122.82 224.479,122.882C224.515,122.898 224.545,122.922 224.579,122.937C224.657,122.969 224.738,122.981 224.817,123.008C224.945,123.051 225.072,123.093 225.204,123.124C225.336,123.155 225.462,123.171 225.592,123.187C225.722,123.203 225.832,123.218 225.955,123.222C226,123.222 226.047,123.235 226.093,123.235C226.227,123.235 226.359,123.219 226.493,123.206C226.54,123.206 226.587,123.206 226.633,123.195C226.866,123.163 227.095,123.11 227.319,123.037C227.371,123.02 227.419,122.997 227.474,122.978C227.659,122.91 227.838,122.829 228.01,122.734C228.042,122.717 228.076,122.708 228.11,122.69C234.802,118.79 243.355,113.571 250.679,108.349C249.017,120.896 244.139,144.17 230.054,160.903C229.447,161.624 229.114,162.537 229.114,163.479C229.114,165.674 230.92,167.479 233.115,167.479C234.294,167.479 235.415,166.958 236.175,166.055C258.088,140.02 259.463,101.355 259.511,99.725C259.512,99.686 259.513,99.646 259.513,99.607C259.513,97.413 257.707,95.607 255.513,95.607C254.571,95.607 253.66,95.939 252.939,96.545C246.831,101.445 240.405,105.937 233.705,109.99C241.06,86.953 244.905,54.842 231.063,18.251C230.476,16.7 228.981,15.667 227.322,15.667C225.383,15.667 223.709,17.078 223.38,18.99C223.318,19.349 217.016,55.29 200.302,87.063C199.284,89.005 200.044,91.441 201.985,92.461Z" style="fill:rgb(33,37,41);fill-rule:nonzero;"/>
    <path d="M90.626,192.4L78.052,192.4C75.858,192.4 74.052,194.206 74.052,196.4C74.052,196.611 74.069,196.821 74.102,197.029L76.611,212.8C77.595,219.731 82.74,225.389 89.547,227.024L104.206,330.563C104.485,332.526 106.184,334 108.167,334L231.833,334C233.817,334 235.516,332.525 235.794,330.561L248.7,239.4C248.726,239.214 248.74,239.027 248.74,238.839C248.74,236.644 246.934,234.838 244.739,234.838C242.755,234.838 241.056,236.314 240.778,238.278L228.359,326L111.641,326L97.685,227.428L246.922,227.428C255.113,227.428 262.039,221.275 263.389,212.798L265.898,197.029C265.931,196.821 265.948,196.611 265.948,196.4C265.948,194.206 264.142,192.4 261.948,192.4L250.81,192.4C261.51,179.674 266.63,163.139 266.883,162.3C266.997,161.923 267.055,161.532 267.055,161.139C267.055,159.113 265.517,157.391 263.504,157.164C259.26,156.681 254.986,156.517 250.717,156.673C248.566,156.733 246.828,158.519 246.828,160.671C246.828,162.866 248.634,164.671 250.828,164.671C250.891,164.671 250.954,164.67 251.017,164.667C253.163,164.587 255.338,164.599 257.528,164.704C254.823,171.604 248.862,184.46 239.628,192.396L228.734,192.396C232.863,188.914 236.548,184.938 239.707,180.557C240.149,179.898 240.384,179.123 240.384,178.33C240.384,176.135 238.579,174.33 236.384,174.33C235.074,174.33 233.844,174.974 233.097,176.051C228.192,182.729 221.936,188.299 214.736,192.4L211.877,192.4C230.687,171.226 227.889,140.589 227.742,139.143C227.537,137.11 225.806,135.544 223.762,135.544C222.6,135.544 221.493,136.05 220.734,136.93C220.634,137.042 210.753,148.287 192.195,156C188.302,157.632 184.527,159.53 180.895,161.681C181.433,160.046 182.031,158.417 182.706,156.799C198.25,143.781 209.371,125.164 215.991,111.72C216.267,111.166 216.411,110.555 216.411,109.936C216.411,107.741 214.605,105.936 212.411,105.936C210.883,105.936 209.483,106.812 208.814,108.186C204.176,117.721 198.61,126.776 192.197,135.22C205.429,95.556 185.897,68.85 184.954,67.595C184.199,66.592 183.014,66 181.758,66C179.768,66 178.065,67.485 177.795,69.457C176.795,76.713 172.428,86.647 165.155,98.184C165.355,49.062 147.471,18.951 146.642,17.584C145.918,16.391 144.619,15.66 143.223,15.66L143.186,15.66C141.777,15.673 140.475,16.429 139.766,17.647C134.147,27.299 129.566,43.973 126.156,67.207C126.128,67.399 126.114,67.594 126.114,67.788C126.114,69.983 127.919,71.788 130.114,71.788C132.09,71.788 133.785,70.324 134.072,68.369C136.591,51.212 139.693,37.936 143.326,28.742C149.012,41.342 159.326,70.288 156.75,110.032C155.897,111.132 155.014,112.253 154.073,113.423C145.214,124.428 139.198,137.445 136.557,151.323C133.328,140.489 129.536,129.831 125.195,119.393C124.577,117.902 123.114,116.925 121.5,116.925C119.306,116.925 117.5,118.731 117.5,120.925C117.5,121.451 117.604,121.971 117.805,122.457C123.852,137.042 131.793,159.135 135.393,181.739C135.777,185.319 136.342,188.877 137.087,192.399L123.1,192.399C122.666,189.249 122.413,186.078 122.343,182.899C121.802,165.733 117.31,148.922 109.217,133.774C99.126,114.8 89.5,84.322 98.372,44.343C105.966,56.518 121.072,83.596 133.923,124.153C134.448,125.811 135.997,126.945 137.736,126.945C139.931,126.945 141.737,125.139 141.737,122.945C141.737,122.535 141.674,122.128 141.55,121.737C141.475,121.501 141.399,121.275 141.324,121.037C149.439,99.41 149.494,71.205 149.492,69.991C149.488,67.799 147.684,65.998 145.492,65.998L145.486,65.998C143.294,66.001 141.492,67.806 141.492,69.998C141.492,70.236 141.448,89.763 136.95,108.006C119.659,59.02 100.771,33.358 99.906,32.2C99.152,31.189 97.962,30.592 96.7,30.592C94.913,30.592 93.332,31.79 92.849,33.511C79.717,80.321 90.658,115.911 102.149,137.531C108.694,149.803 112.721,163.261 113.992,177.111C109.022,173.114 104.453,168.642 100.349,163.759C99.59,162.839 98.457,162.305 97.264,162.305C95.069,162.305 93.264,164.11 93.264,166.305C93.264,167.21 93.571,168.089 94.135,168.797C94.535,169.297 103.635,180.438 114.535,187.287C114.664,189.209 114.835,190.908 115.024,192.401L104.314,192.401C95.266,187.601 81.461,175.538 80.955,146.609C87.07,148.549 92.895,151.308 98.271,154.809C98.922,155.236 99.684,155.463 100.463,155.463C102.657,155.463 104.463,153.658 104.463,151.463C104.463,150.09 103.756,148.809 102.594,148.078C88.844,139.247 78.019,137.619 77.566,137.554C77.378,137.527 77.189,137.514 76.999,137.514C74.854,137.514 73.072,139.238 73.001,141.381C72.112,168.334 81.244,183.731 90.626,192.4ZM195.266,163.387C204.133,159.729 212.413,154.785 219.84,148.714C219.245,160.114 215.84,180.004 200.308,192.4L179.83,192.4C179.499,191.559 179.211,190.701 178.968,189.831C193.868,186.231 206.688,173.407 207.275,172.812C208.032,172.061 208.458,171.038 208.458,169.973C208.458,167.778 206.652,165.973 204.458,165.973C203.376,165.973 202.339,166.411 201.586,167.188C201.462,167.314 190.203,178.588 177.82,181.878C177.73,179.182 177.849,176.482 178.175,173.804C178.212,173.493 178.267,173.182 178.308,172.871C183.594,169.095 189.281,165.914 195.266,163.387ZM160.3,118.438C164.471,113.345 168.344,108.015 171.9,102.476C176.391,95.594 180.145,88.259 183.1,80.592C188.4,92.511 194.477,116.551 178.312,147.337C177.412,149.037 176.612,150.762 175.852,152.492C175.842,152.511 175.836,152.531 175.826,152.55C173.374,158.114 171.631,163.964 170.638,169.963C170.638,169.988 170.631,170.012 170.628,170.037C170.476,170.978 170.335,171.92 170.228,172.864C169.628,177.552 169.635,182.298 170.249,186.985L170.249,187.051C170.259,187.141 170.287,187.224 170.302,187.312C170.548,189.03 170.909,190.73 171.381,192.4L164.04,192.4C159.081,176.518 161.735,161.161 164.972,150.849C165.09,150.467 165.15,150.069 165.15,149.669C165.15,147.474 163.344,145.669 161.15,145.669C159.414,145.669 157.866,146.799 157.339,148.454C153.913,159.368 151.081,175.431 155.695,192.4L145.276,192.4C144.427,188.733 143.793,185.02 143.376,181.279C143.376,181.136 143.368,180.993 143.353,180.851C143.336,180.751 143.317,180.646 143.301,180.543C141.608,164.456 142.956,140.014 160.3,118.438ZM82.738,200.4L257.26,200.4L255.486,211.541C254.759,216.111 251.156,219.428 246.92,219.428L93.078,219.428C88.842,219.428 85.239,216.111 84.512,211.541L82.738,200.4Z" style="fill:rgb(33,37,41);fill-rule:nonzero;"/>
    <path d="M110.975,98.293C109.028,99.303 108.257,101.736 109.266,103.684C109.277,103.708 109.66,104.448 110.328,105.81C110.999,107.179 112.396,108.05 113.92,108.05C116.114,108.05 117.92,106.244 117.92,104.05C117.92,103.44 117.78,102.838 117.512,102.29C116.781,100.799 116.367,100.001 116.367,100.001C115.356,98.054 112.923,97.283 110.975,98.293ZM167.092,134.853C168.987,135.96 171.456,135.311 172.563,133.417C173.026,132.626 173.313,132.181 173.348,132.126C173.773,131.475 174,130.714 174,129.937C174,127.741 172.193,125.934 169.998,125.934C168.648,125.934 167.386,126.617 166.648,127.747C165.91,128.877 166.275,128.313 165.648,129.38C165.291,129.992 165.103,130.687 165.103,131.395C165.103,132.818 165.862,134.138 167.092,134.853ZM224.133,92.735C224.733,91.075 225.033,90.148 225.033,90.148C225.154,89.762 225.215,89.359 225.215,88.954C225.215,86.76 223.41,84.954 221.215,84.954C219.497,84.954 217.963,86.061 217.42,87.691C217.407,87.73 217.14,88.556 216.612,90.008C216.454,90.445 216.372,90.907 216.372,91.372C216.372,93.566 218.178,95.372 220.373,95.372C222.053,95.372 223.562,94.314 224.134,92.735L224.133,92.735Z" style="fill:rgb(33,37,41);fill-rule:nonzero;"/>
</svg>
